<svg width="53" height="32" viewBox="0 0 53 32" fill="none" xmlns="http://www.w3.org/2000/svg">
<g clip-path="url(#clip0_355_17433)">
<path d="M14.8452 11.8096C14.8452 12.4787 14.9162 13.0213 15.0406 13.4191C15.1827 13.817 15.3604 14.2511 15.6091 14.7213C15.698 14.866 15.7335 15.0106 15.7335 15.1372C15.7335 15.3181 15.6269 15.4989 15.3959 15.6798L14.2766 16.4394C14.1168 16.5479 13.9569 16.6021 13.8147 16.6021C13.6371 16.6021 13.4594 16.5117 13.2817 16.3489C13.033 16.0777 12.8198 15.7883 12.6421 15.4989C12.4645 15.1915 12.2868 14.8479 12.0914 14.4319C10.7056 16.0957 8.96447 16.9277 6.86802 16.9277C5.37563 16.9277 4.18528 16.4936 3.31472 15.6255C2.44416 14.7574 2 13.6 2 12.1532C2 10.616 2.533 9.36808 3.61675 8.42766C4.70051 7.48723 6.13959 7.01702 7.96954 7.01702C8.5736 7.01702 9.19543 7.07128 9.85279 7.1617C10.5102 7.25213 11.1853 7.39681 11.8959 7.55957V6.23936C11.8959 4.86489 11.6117 3.90638 11.0609 3.34574C10.4924 2.78511 9.53299 2.51383 8.16497 2.51383C7.54315 2.51383 6.90355 2.58617 6.24619 2.74894C5.58883 2.9117 4.94924 3.11064 4.32741 3.36383C4.04315 3.49043 3.82995 3.56277 3.70558 3.59894C3.58122 3.63511 3.49239 3.65319 3.42132 3.65319C3.17259 3.65319 3.04822 3.47234 3.04822 3.09255V2.20638C3.04822 1.91702 3.08376 1.7 3.17259 1.5734C3.26142 1.44681 3.42132 1.32021 3.67005 1.19362C4.29188 0.868085 5.03807 0.596808 5.90863 0.379787C6.77919 0.144681 7.70305 0.0361702 8.6802 0.0361702C10.7944 0.0361702 12.3401 0.524468 13.335 1.50106C14.3122 2.47766 14.8096 3.96064 14.8096 5.95V11.8096H14.8452ZM7.63198 14.5585C8.21827 14.5585 8.82234 14.45 9.46193 14.233C10.1015 14.016 10.6701 13.6181 11.1497 13.0755C11.434 12.7319 11.6472 12.3521 11.7538 11.9181C11.8604 11.484 11.9315 10.9596 11.9315 10.3447V9.58511C11.4162 9.45851 10.8655 9.35 10.297 9.27766C9.72843 9.20532 9.17767 9.16915 8.6269 9.16915C7.43655 9.16915 6.56599 9.40425 5.9797 9.89255C5.3934 10.3809 5.10914 11.0681 5.10914 11.9723C5.10914 12.8223 5.32234 13.4553 5.7665 13.8894C6.19289 14.3415 6.81472 14.5585 7.63198 14.5585ZM21.8985 16.5117C21.5787 16.5117 21.3655 16.4574 21.2234 16.3309C21.0812 16.2223 20.9569 15.9691 20.8503 15.6255L16.6751 1.64574C16.5685 1.28404 16.5152 1.04894 16.5152 0.92234C16.5152 0.632979 16.6574 0.470213 16.9416 0.470213H18.6827C19.0203 0.470213 19.2513 0.524468 19.3756 0.651064C19.5178 0.759574 19.6244 1.01277 19.731 1.35638L22.7157 13.3287L25.4873 1.35638C25.5761 0.994681 25.6827 0.759574 25.8249 0.651064C25.967 0.542553 26.2157 0.470213 26.5355 0.470213H27.9569C28.2944 0.470213 28.5254 0.524468 28.6675 0.651064C28.8096 0.759574 28.934 1.01277 29.0051 1.35638L31.8122 13.4734L34.8858 1.35638C34.9924 0.994681 35.1167 0.759574 35.2411 0.651064C35.3832 0.542553 35.6142 0.470213 35.934 0.470213H37.5863C37.8706 0.470213 38.0305 0.614894 38.0305 0.92234C38.0305 1.01277 38.0127 1.10319 37.9949 1.2117C37.9772 1.32021 37.9416 1.46489 37.8706 1.66383L33.5888 15.6436C33.4822 16.0053 33.3579 16.2404 33.2157 16.3489C33.0736 16.4574 32.8426 16.5298 32.5406 16.5298H31.0127C30.6751 16.5298 30.4442 16.4755 30.302 16.3489C30.1599 16.2223 30.0355 15.9872 29.9645 15.6255L27.2107 3.96064L24.4746 15.6074C24.3858 15.9691 24.2792 16.2043 24.1371 16.3309C23.9949 16.4574 23.7462 16.5117 23.4264 16.5117H21.8985ZM44.7284 17C43.8046 17 42.8807 16.8915 41.9924 16.6745C41.1041 16.4574 40.4112 16.2223 39.9492 15.9511C39.665 15.7883 39.4695 15.6074 39.3985 15.4447C39.3274 15.2819 39.2919 15.1011 39.2919 14.9383V14.016C39.2919 13.6362 39.434 13.4553 39.7005 13.4553C39.8071 13.4553 39.9137 13.4734 40.0203 13.5096C40.1269 13.5457 40.2868 13.6181 40.4645 13.6904C41.0685 13.9617 41.7259 14.1787 42.4188 14.3234C43.1294 14.4681 43.8223 14.5404 44.533 14.5404C45.6523 14.5404 46.5228 14.3415 47.1269 13.9436C47.731 13.5457 48.0508 12.967 48.0508 12.2255C48.0508 11.7191 47.8909 11.3032 47.5711 10.9596C47.2513 10.616 46.6472 10.3085 45.7766 10.0191L43.2005 9.20532C41.9036 8.78936 40.9442 8.17447 40.3579 7.36064C39.7716 6.56489 39.4695 5.67872 39.4695 4.7383C39.4695 3.97872 39.6294 3.30957 39.9492 2.73085C40.269 2.15213 40.6954 1.64574 41.2284 1.24787C41.7614 0.831915 42.3655 0.524468 43.0761 0.307447C43.7868 0.0904255 44.533 0 45.3147 0C45.7056 0 46.1142 0.0180851 46.5051 0.0723404C46.9137 0.126596 47.2868 0.198936 47.6599 0.271277C48.0152 0.361702 48.3528 0.452128 48.6726 0.560638C48.9924 0.669149 49.2411 0.77766 49.4188 0.88617C49.6675 1.03085 49.8452 1.17553 49.9518 1.3383C50.0584 1.48298 50.1117 1.68191 50.1117 1.93511V2.78511C50.1117 3.16489 49.9695 3.36383 49.703 3.36383C49.5609 3.36383 49.3299 3.29149 49.0279 3.14681C48.0152 2.6766 46.8782 2.44149 45.6168 2.44149C44.6041 2.44149 43.8046 2.60426 43.2538 2.94787C42.703 3.29149 42.4188 3.81596 42.4188 4.55745C42.4188 5.06383 42.5964 5.49787 42.9518 5.84149C43.3071 6.18511 43.9645 6.52872 44.9061 6.83617L47.4289 7.65C48.7081 8.06596 49.632 8.64468 50.1827 9.38617C50.7335 10.1277 51 10.9777 51 11.9181C51 12.6957 50.8401 13.4011 50.5381 14.016C50.2183 14.6309 49.7919 15.1734 49.2411 15.6074C48.6904 16.0596 48.033 16.3851 47.269 16.6202C46.4695 16.8734 45.6345 17 44.7284 17Z" fill="#252F3E"/>
<path fill-rule="evenodd" clip-rule="evenodd" d="M47.5821 25.374C41.8232 29.7023 33.4562 32 26.262 32C16.1795 32 7.09482 28.2061 0.233159 21.9007C-0.309472 21.402 0.180647 20.7252 0.828303 21.117C8.2501 25.4987 17.4048 28.1527 26.8746 28.1527C33.2636 28.1527 40.2829 26.799 46.7419 24.0203C47.7046 23.5751 48.5273 24.6616 47.5821 25.374Z" fill="#FF9900"/>
<path fill-rule="evenodd" clip-rule="evenodd" d="M50.3135 22.6856C49.5682 21.7128 45.3803 22.2172 43.4815 22.4514C42.9136 22.5235 42.8249 22.019 43.3395 21.6407C46.6757 19.2628 52.1591 19.9474 52.7979 20.74C53.4367 21.5507 52.6204 27.1172 49.4972 29.7834C49.0181 30.1977 48.5567 29.9815 48.7697 29.4411C49.4795 27.6576 51.0588 23.6404 50.3135 22.6856Z" fill="#FF9900"/>
</g>
<defs>
<clipPath id="clip0_355_17433">
<rect width="53" height="32" fill="white"/>
</clipPath>
</defs>
</svg>
