<svg width="205" height="153" viewBox="0 0 205 153" fill="none" xmlns="http://www.w3.org/2000/svg">
<path d="M78.8408 24.5321C79.1476 32.1517 79.4544 41.3758 79.6008 49.8118C79.6008 49.8118 88.9403 43.5235 95.2961 41.0859C95.8816 40.8644 96.5026 40.7518 97.1286 40.7537L97.5339 40.1683C98.5163 38.0403 99.6056 35.9179 100.63 33.7505C99.068 33.531 98.9131 31.5156 98.9047 30.1166C98.9047 29.6297 98.9047 29.1399 98.9328 28.6529C96.2644 27.9774 94.5587 25.2048 95.6423 21.8721C96.4615 19.3388 98.7949 17.5232 101.382 16.8055C102.201 14.691 103.219 12.659 104.422 10.7367C101.347 9.5897 98.0637 9.10995 94.7895 9.32935C93.9671 9.39003 93.1487 9.49527 92.3378 9.64461C90.9583 9.61647 89.5786 9.68419 88.2085 9.84727C83.398 10.4102 78.7451 11.8176 74.2471 13.6472C77.6389 15.3981 78.6691 20.1973 78.8408 24.5321Z" fill="#F2F4F7"/>
<path d="M131.874 34.4487C131.071 34.2747 130.284 34.0327 129.521 33.7253C128.823 35.3579 128.114 36.9257 127.506 38.3359C125.662 42.575 121.44 52.3564 121.44 52.3564L121.358 52.5647C121.586 52.773 121.764 52.9447 121.871 53.0517C123.278 54.4591 123.41 59.2442 123.438 67.1257C123.467 75.0071 123.309 91.7805 125.772 100.929C127.137 105.995 128.601 115.126 133 118.33C139.669 123.188 146.314 113.243 148.721 107.937C150.77 103.434 151.831 98.9104 153.281 94.2631C154.047 91.8114 154.553 89.9396 156.574 89.478C156.574 89.478 160.118 74.903 161.376 68.2431C162.502 62.1941 163.82 54.2818 169.584 50.8533C171.932 49.4459 177.097 46.9745 178.966 50.2622C180.624 48.6381 183.824 48.1877 185.133 50.0624C185.085 44.6 182.989 39.3545 179.259 35.3635C176.67 32.5484 173.407 30.4378 169.778 29.2301C165.632 27.8677 161.185 28.1492 156.999 29.1906C148.718 31.2708 140.724 36.3656 131.874 34.4487Z" fill="#F2F4F7"/>
<path d="M202.788 107.741C202.002 103.456 199.449 99.8141 196.266 96.9374C192.646 93.6638 188.525 90.8856 184.63 87.9554L181.618 85.6895L178.595 99.5551L178.561 99.6677C179.074 100.229 179.521 100.848 179.892 101.511C183.084 107.304 181.438 116.939 179.329 122.732C178.766 124.261 177.272 126.937 175.529 128.967C175.949 131.151 175.583 133.837 174.837 136.539C177.251 136.303 179.643 135.875 181.989 135.258C189.964 133.13 197.8 128.204 201.195 120.399C202.948 116.385 203.59 112.064 202.788 107.741Z" fill="#F2F4F7"/>
<path d="M204.304 67.0583C203.923 66.1871 203.292 65.4488 202.491 64.9378C201.689 64.4268 200.753 64.1662 199.803 64.1891C198.852 64.2121 197.93 64.5176 197.154 65.0667C196.378 65.6158 195.784 66.3836 195.446 67.2722L194.992 68.4488C194.41 68.2264 193.585 67.9168 192.611 67.5481C192.296 67.4297 191.948 67.4413 191.642 67.5801C191.335 67.7189 191.097 67.9737 190.979 68.2884C190.86 68.603 190.872 68.9518 191.011 69.258C191.149 69.5641 191.404 69.8026 191.719 69.9209L194.08 70.8104L193.779 71.5845C193.552 72.172 193.443 72.7985 193.458 73.4282C193.474 74.0579 193.613 74.6784 193.868 75.2544C194.123 75.8303 194.489 76.3504 194.945 76.7849C195.4 77.2195 195.938 77.5599 196.525 77.7869C197.113 78.0139 197.739 78.1229 198.369 78.1077C198.999 78.0925 199.619 77.9535 200.195 77.6985C200.771 77.4436 201.291 77.0776 201.726 76.6217C202.16 76.1657 202.501 75.6286 202.728 75.0411L204.394 70.726C204.622 70.139 204.732 69.5127 204.716 68.8831C204.701 68.2536 204.561 67.6333 204.304 67.0583ZM202.029 69.8083L200.366 74.1206C200.259 74.3979 200.098 74.6513 199.893 74.8665C199.688 75.0816 199.443 75.2543 199.171 75.3747C198.9 75.4951 198.607 75.5608 198.31 75.568C198.013 75.5752 197.717 75.5238 197.44 75.4168C197.163 75.3098 196.909 75.1492 196.694 74.9443C196.479 74.7393 196.306 74.494 196.186 74.2223C196.065 73.9506 196 73.6578 195.993 73.3608C195.985 73.0637 196.037 72.7681 196.144 72.4908L197.807 68.1786C197.973 67.7525 198.263 67.3865 198.64 67.1283C199.018 66.8701 199.464 66.7319 199.921 66.7318C200.289 66.7297 200.652 66.8178 200.978 66.9884C201.304 67.1591 201.584 67.4071 201.792 67.7107C202 68.0143 202.13 68.3642 202.172 68.7299C202.213 69.0956 202.164 69.4659 202.029 69.8083Z" fill="#FAC515"/>
<path d="M79.6035 49.823C79.6035 49.823 88.943 43.5348 95.2988 41.0972C98.2318 39.9712 101.643 41.9951 104.574 43.1097C108.717 44.686 112.621 46.3749 116.396 48.6577C118.484 49.9215 121.263 52.4492 121.865 53.0544C123.272 54.4618 123.405 59.247 123.433 67.1284C123.461 75.0098 123.303 91.7832 125.766 100.931C127.131 105.998 128.595 115.129 132.995 118.332C139.663 123.191 146.309 113.246 148.715 107.94C150.764 103.436 151.826 98.9131 153.275 94.2659C154.227 91.2203 154.775 89.0641 158.342 89.4329C161.224 89.7312 165.097 91.7607 167.631 93.0921C171.752 95.2679 177.522 97.2017 179.906 101.536C183.098 107.327 181.451 116.962 179.343 122.754C178.074 126.245 171.856 135.745 169.153 129.791C167.974 127.196 170.91 123.346 173.559 125.443C179.29 129.98 172.126 144.775 169.32 148.544" stroke="#101828" stroke-width="2" stroke-linecap="round" stroke-linejoin="round"/>
<path d="M93.5956 46.3552C93.4633 49.8512 94.8426 58.6615 97.8037 61.0625C102.403 64.7893 108.796 56.2155 111.574 53.6962C111.436 56.77 109.665 64.3784 113.018 66.2136C115.396 67.5141 118.366 65.0877 120.055 63.807" stroke="#101828" stroke-width="2" stroke-linecap="round" stroke-linejoin="round"/>
<path d="M106.544 63.8069C103.988 66.7849 101.415 69.9094 98.9212 74.3117C96.4273 78.7141 94.7778 82.2072 95.8249 84.6955C96.5708 86.4548 98.8593 85.5737 99.5292 87.4934C100.444 90.1112 95.7292 94.5304 94.8566 96.6781C93.8545 99.141 93.1171 101.745 93.8658 104.126C94.4963 106.122 95.6814 107.174 95.5547 109.474C95.4308 111.988 90.7695 119.044 90.7695 120.669" stroke="#101828" stroke-width="2" stroke-linecap="round" stroke-linejoin="round"/>
<path d="M102.603 80.1331L104.291 80.4145" stroke="#101828" stroke-width="2" stroke-linecap="round" stroke-linejoin="round"/>
<path d="M98.3809 99.5549C98.7749 99.6675 99.0986 99.7492 99.5068 99.8364" stroke="#101828" stroke-width="2" stroke-linecap="round" stroke-linejoin="round"/>
<path d="M95.0029 119.259H96.4103" stroke="#101828" stroke-width="2" stroke-linecap="round" stroke-linejoin="round"/>
<path d="M109.358 92.2366C111.99 94.1675 114.842 95.6875 117.24 97.8662" stroke="#101828" stroke-width="2" stroke-linecap="round" stroke-linejoin="round"/>
<path d="M116.395 92.7996C116.066 96.6474 114.633 100.946 113.299 104.622" stroke="#101828" stroke-width="2" stroke-linecap="round" stroke-linejoin="round"/>
<path d="M113.862 91.3923C113.479 93.8581 111.047 100.797 111.047 100.797" stroke="#101828" stroke-width="2" stroke-linecap="round" stroke-linejoin="round"/>
<path d="M156.568 89.4837C156.568 89.4837 160.112 74.9087 161.37 68.2489C162.496 62.1999 163.814 54.2875 169.578 50.8591C171.926 49.4517 177.091 46.9803 178.96 50.268C180.984 48.2836 185.322 48.0471 185.679 51.6754C188.305 50.0991 190.844 51.5909 190.746 54.7717C197.906 55.0926 193.515 68.4319 189.901 71.151C187.297 73.1044 185.023 72.3839 183.709 70.8216" stroke="#101828" stroke-width="2" stroke-linecap="round" stroke-linejoin="round"/>
<path d="M178.603 99.5549L184.674 71.7053" stroke="#101828" stroke-width="2" stroke-linecap="round" stroke-linejoin="round"/>
<path d="M159.462 78.1624C163.878 78.1624 168.07 78.4607 171.847 79.7893C175.624 81.1179 179.591 83.2487 181.136 85.5005" stroke="#101828" stroke-width="2" stroke-linecap="round" stroke-linejoin="round"/>
<path d="M171.284 55.9255C171.397 56.9023 171.245 58.5011 171.284 59.0218" stroke="#101828" stroke-width="2" stroke-linecap="round" stroke-linejoin="round"/>
<path d="M178.96 50.2678C180.581 52.6786 181.331 55.5698 181.088 58.4645" stroke="#101828" stroke-width="2" stroke-linecap="round" stroke-linejoin="round"/>
<path d="M185.678 51.675C186.467 55.5172 187.032 61.662 185.357 64.8596C183.998 67.452 180.116 69.8952 177.152 68.3105" stroke="#101828" stroke-width="2" stroke-linecap="round" stroke-linejoin="round"/>
<path d="M190.746 54.7771C190.746 62.94 186.445 76.026 178.603 68.8004" stroke="#101828" stroke-width="2" stroke-linecap="round" stroke-linejoin="round"/>
<path d="M169.009 59.368C161.466 56.7531 150.713 52.8743 150.606 52.8349C150.448 52.7708 150.279 52.7392 150.108 52.7421C149.938 52.745 149.77 52.7824 149.614 52.8519C149.458 52.9213 149.318 53.0216 149.202 53.1465C149.086 53.2715 148.996 53.4186 148.938 53.579C148.881 53.7395 148.856 53.9099 148.865 54.0802C148.875 54.2505 148.919 54.417 148.994 54.5699C149.07 54.7228 149.176 54.8588 149.305 54.9699C149.435 55.081 149.585 55.1647 149.748 55.2162L150.536 55.4977L149.359 58.0845C149.289 58.2367 149.25 58.4012 149.243 58.5687C149.237 58.7362 149.264 58.9033 149.323 59.0603C149.381 59.2173 149.47 59.3611 149.585 59.4835C149.699 59.6059 149.837 59.7044 149.99 59.7734C150.154 59.8496 150.332 59.889 150.513 59.8888C150.757 59.8885 150.995 59.8184 151.199 59.6866C151.404 59.5549 151.566 59.3671 151.667 59.1457L152.928 56.3703L153.013 56.3984C151.8 58.7938 151.856 59.1175 152.168 59.6664C152.28 59.8584 152.44 60.0176 152.633 60.1283C152.826 60.2389 153.044 60.297 153.266 60.2969C153.489 60.2979 153.708 60.2386 153.899 60.1252C154.075 60.0243 154.224 59.8826 154.333 59.7121C154.442 59.5416 154.509 59.3473 154.527 59.1457C154.643 58.8304 155.014 58.0479 155.414 57.2626C159.169 58.6052 164.14 60.3588 168.173 61.7662C168.33 61.8217 168.497 61.8456 168.663 61.8367C168.83 61.8279 168.993 61.7863 169.143 61.7144C169.293 61.6425 169.428 61.5417 169.539 61.4178C169.651 61.2939 169.736 61.1493 169.792 60.9922C169.847 60.8351 169.871 60.6686 169.862 60.5022C169.853 60.3359 169.812 60.1729 169.74 60.0226C169.668 59.8723 169.567 59.7376 169.443 59.6263C169.32 59.515 169.175 59.4291 169.018 59.3737L169.009 59.368Z" fill="#FAC515"/>
<path d="M97.5367 40.1628C99.3438 36.2474 101.522 32.3518 102.91 28.1634C98.3333 30.3364 94.0717 26.6856 95.6367 21.8666C97.1004 17.363 103.383 15.0858 107.332 17.3208C108.928 11.9529 113.243 4.81742 119.211 4.13343C127.295 3.20736 133.124 10.3682 137.484 16.0794C139.623 18.9479 141.506 21.9976 143.114 25.1937C140.094 24.7771 132.781 23.5837 132.781 23.5837C132.173 28.2056 129.383 33.9984 127.511 38.336C125.662 42.5751 121.44 52.3565 121.44 52.3565" stroke="#101828" stroke-width="2" stroke-linecap="round" stroke-linejoin="round"/>
<path d="M118.366 25.8074C118.929 27.2429 120.193 29.0191 122.025 29.0191" stroke="#101828" stroke-width="2" stroke-linecap="round" stroke-linejoin="round"/>
<path d="M120.899 17.926L121.744 19.6149" stroke="#101828" stroke-width="2" stroke-linecap="round" stroke-linejoin="round"/>
<path d="M125.121 17.6443L126.247 19.6146" stroke="#101828" stroke-width="2" stroke-linecap="round" stroke-linejoin="round"/>
<path d="M104.011 22.7109C103.217 22.5139 100.211 22.4604 100.914 22.4294" stroke="#101828" stroke-width="2" stroke-linecap="round" stroke-linejoin="round"/>
<path d="M98.9212 28.6472C98.9015 29.1342 98.8902 29.624 98.893 30.1109C98.893 31.5183 99.0563 33.5253 100.618 33.7448C101.49 31.931 102.253 30.0672 102.904 28.1631C101.675 28.7878 100.264 28.9593 98.9212 28.6472Z" fill="#101828"/>
<path d="M137.445 9.50652C133.2 8.20326 130.864 3.80937 127.128 1.62508C123.483 -0.502904 118.616 -0.790012 115.385 2.27249C115.016 2.62729 114.684 3.01868 114.394 3.44063C114.259 3.63766 114.169 3.78403 114.085 3.89662C112.656 3.55981 111.153 3.76018 109.862 4.45958C107.855 5.56017 106.397 7.76134 105.139 9.61066C103.614 11.8569 102.349 14.2697 101.37 16.8025C103.12 16.2724 104.997 16.3477 106.699 17.0164C106.87 18.9488 107.36 20.8395 108.148 22.6122C108.494 23.3919 109.719 23.3046 110.093 22.6122C112.536 18.0804 118.143 13.5598 117.493 8.11882C123.763 10.5235 130.423 11.7451 137.138 11.7218C138.43 11.7105 138.655 9.87525 137.445 9.50652Z" fill="#101828"/>
<path d="M72.6056 150.804C66.8606 151.401 54.3094 151.871 42.7688 151.871C31.2281 151.871 18.3673 152.102 13.0136 151.936C7.65982 151.77 2.59881 149.965 2.23007 141.456C1.86133 132.947 1.66711 119.43 1.64741 110.918C1.58548 91.0966 1.00001 71.3029 1.00001 51.4446C1.00001 41.0805 0.983118 31.0795 2.71985 20.8955C3.62621 15.5784 8.66751 13.7938 13.585 12.9325C21.9928 11.4604 27.0003 12.0205 35.5545 11.5842C47.872 10.9537 66.703 12.499 71.9526 12.9916C77.2022 13.4842 78.6265 19.3418 78.8348 24.5323C79.2457 34.7415 79.6595 47.836 79.6792 58.0509C79.7243 79.1253 79.2908 100.461 80.4054 121.46C80.7939 128.829 80.4871 138.039 80.4871 141.234C80.4871 144.429 78.3534 150.21 72.6056 150.804Z" stroke="#101828" stroke-width="2" stroke-linecap="round" stroke-linejoin="round"/>
<path d="M17.9056 12.8083C11.5245 15.5077 10.2184 21.0135 9.93132 29.0075C9.64421 37.0015 9.78214 52.6237 9.78214 68.2176C9.78214 83.8116 9.92851 101.063 9.92851 112.047C9.92851 123.03 9.89755 133.954 10.3986 141.233C10.8996 148.513 14.5223 151.978 19.7831 152" stroke="#101828" stroke-width="2" stroke-linecap="round" stroke-linejoin="round"/>
<path d="M63.3308 93.2949C62.6074 79.5559 61.7686 78.0669 61.4534 77.5039C60.4766 75.77 58.6836 74.8383 56.7386 74.357C56.7273 73.7396 56.7189 73.1382 56.7132 72.5527C56.6429 66.3911 56.5894 61.5243 51.0471 57.6343C48.7952 56.0467 44.1395 55.2417 39.2868 57.2149C32.9057 59.8158 32.7931 66.9034 32.7115 72.0798C32.6946 73.1579 32.6805 74.1825 32.6073 75.0579L32.3962 75.1029C27.6533 76.2288 27.3774 82.5452 27.1776 87.1615C27.1466 87.9046 27.1156 88.6055 27.0706 89.2388C26.5668 96.2758 26.5274 107.045 26.5274 107.152C26.5263 107.405 26.6228 107.649 26.7968 107.833C26.9708 108.017 27.209 108.127 27.4619 108.14C31.4026 108.348 35.0618 108.441 38.6901 108.441C46.352 108.441 53.7746 108.03 62.8973 107.465C63.1514 107.449 63.3897 107.336 63.5619 107.149C63.7342 106.961 63.8269 106.714 63.8206 106.46C63.8319 106.401 63.6827 99.9885 63.3308 93.2949ZM35.2448 72.1249C35.3236 67.1624 35.4137 61.5356 40.2439 59.568C43.0587 58.4252 47.2809 58.0903 49.5946 59.7144C54.0701 62.8501 54.1152 66.7233 54.1799 72.5809C54.1799 73.0312 54.1799 73.4929 54.1968 73.9629C53.6339 73.9179 53.0709 73.8982 52.5586 73.8982C49.6959 73.8982 40.3959 74.1515 35.1716 74.6976C35.2166 73.8954 35.2307 73.0284 35.2448 72.1249Z" fill="#06AED4"/>
<path d="M37.2297 75.6038C35.3156 79.1504 36.1291 95.9548 35.918 107.464" stroke="#101828" stroke-width="2" stroke-linecap="round" stroke-linejoin="round"/>
<path d="M51.1205 90.1423C52.0116 90.0573 52.8386 89.6417 53.4387 88.9776C54.0388 88.3134 54.3686 87.4486 54.3631 86.5535C54.3631 84.6873 53.088 83.2939 51.1458 83.004C49.9874 82.8297 48.8099 82.824 47.6498 82.9871L47.3036 83.0209C45.2798 83.2095 43.8189 84.7267 43.8301 86.6238C43.8381 87.4807 44.1523 88.3064 44.7161 88.9517C45.2798 89.5971 46.0559 90.0194 46.9039 90.1423C45.9215 93.7396 44.3903 98.3728 44.3706 98.4291C44.3217 98.5772 44.3086 98.7348 44.3323 98.889C44.356 99.0432 44.4159 99.1895 44.5071 99.3161C44.5982 99.4427 44.7181 99.5459 44.8568 99.6173C44.9955 99.6886 45.1491 99.7261 45.3051 99.7267H45.3361L52.6067 99.5044C52.7578 99.5004 52.906 99.4617 53.0398 99.3911C53.1735 99.3205 53.2891 99.2201 53.3776 99.0975C53.4662 98.9749 53.5252 98.8336 53.5502 98.6844C53.5751 98.5353 53.5653 98.3824 53.5215 98.2377C53.5046 98.1758 52.1479 93.6383 51.1205 90.1423Z" fill="#101828"/>
<path d="M175.506 75.3477C177.826 72.9017 177.862 65.8844 174.183 64.4263C176.767 64.2659 183.174 64.7866 183.953 61.2597C184.454 59.0078 181.192 58.3407 179.315 58.2028C174.059 57.8143 167.149 59.6777 164.627 64.6768" stroke="#101828" stroke-width="2" stroke-linecap="round" stroke-linejoin="round"/>
</svg>
