<svg width="56" height="56" viewBox="0 0 56 56" fill="none" xmlns="http://www.w3.org/2000/svg">
<circle cx="28.5" cy="28.5" r="24.9375" fill="#1ED760"/>
<path d="M39.1376 37.8402C38.719 38.5043 37.8261 38.6903 37.1284 38.2918C31.6312 35.1038 24.7387 34.3865 16.5904 36.1399C15.8091 36.2993 15.0277 35.8477 14.8603 35.1038C14.6929 34.36 15.1673 33.6161 15.9486 33.4567C24.8503 31.5174 32.4962 32.3409 38.6353 35.9274C39.3329 36.3259 39.5562 37.176 39.1376 37.8402ZM41.9839 31.783C41.4537 32.6066 40.3375 32.8457 39.4725 32.3675C33.1938 28.6747 23.6225 27.6121 16.1997 29.764C15.2231 30.0296 14.2185 29.5249 13.9394 28.6216C13.6604 27.6918 14.1906 26.7354 15.1673 26.4697C23.6504 24.0256 34.1984 25.1945 41.4258 29.4186C42.235 29.8968 42.5141 30.9595 41.9839 31.783ZM42.235 25.4602C34.7007 21.2096 22.283 20.8111 15.0835 22.8832C13.9394 23.2286 12.7116 22.6176 12.3489 21.5018C11.9861 20.4126 12.6558 19.2436 13.7999 18.8983C22.0598 16.5073 35.789 16.9855 44.4395 21.8737C45.472 22.4582 45.8069 23.7334 45.193 24.7163C44.607 25.7259 43.2675 26.0712 42.235 25.4602Z" fill="white"/>
</svg>
