<svg width="56" height="56" viewBox="0 0 56 56" fill="none" xmlns="http://www.w3.org/2000/svg">
<circle cx="28" cy="28" r="24.5" fill="#4087FC"/>
<path d="M14.4667 17.5C13.2424 17.5 12.25 18.6193 12.25 20V32.125C12.25 35.6458 14.7807 38.5 17.9025 38.5L31.0333 38.375C32.2576 38.375 33.25 37.2558 33.25 35.875V23.625C33.25 20.1042 30.2468 17.5 27.125 17.5L14.4667 17.5Z" fill="white"/>
<path d="M36.2464 22.2733C35.4542 23.0565 35 24.1869 35 25.375V30.4488C35 31.6369 35.4542 32.7673 36.2464 33.5505L41.1754 37.8918C42.1784 38.8835 43.75 38.0802 43.75 36.5759V19.4865C43.75 17.9822 42.1784 17.1789 41.1754 18.1706L36.2464 22.2733Z" fill="white"/>
</svg>
