<svg width="56" height="56" viewBox="0 0 56 56" fill="none" xmlns="http://www.w3.org/2000/svg">
<path fill-rule="evenodd" clip-rule="evenodd" d="M23.0801 20.3689C23.0541 20.3689 23.0039 20.3689 22.978 20.3689C22.547 20.3164 22.1922 19.9214 22.1922 19.4739C22.1662 19.0526 21.9376 9.20638 27.492 6.9687C28.8871 6.41578 30.1819 6.52103 31.2723 7.33731C32.6155 8.31138 33.5796 10.2595 34.1629 13.1028C34.5679 15.1036 34.6441 16.8411 34.6441 16.9202C34.6701 17.3413 34.3412 17.6574 33.9085 17.5783C33.4775 17.5256 33.1227 17.1308 33.1227 16.7095C33.0465 14.9193 32.4632 9.99631 30.5367 8.57457C29.9275 8.12707 29.1658 8.07436 28.2536 8.44297C23.4851 10.3647 23.7136 19.6055 23.7136 19.7108C23.7136 20.0794 23.4609 20.3689 23.0801 20.3689Z" fill="#595961"/>
<path opacity="0.46" fill-rule="evenodd" clip-rule="evenodd" d="M30.9918 7.38961C29.9775 6.65239 28.7866 6.54715 27.4919 7.04736C25.2348 7.96871 23.6373 10.3909 22.8515 14.0766C22.2682 16.7882 22.3443 19.2367 22.3443 19.3419C22.3443 19.4735 22.3945 19.6053 22.4966 19.7105C22.597 19.8158 22.6991 19.8948 22.8255 19.8948C22.8514 19.8948 22.8774 19.8948 22.9016 19.8948C23.1301 19.8948 23.3084 19.7105 23.3084 19.4735C23.3084 19.3683 23.08 9.96955 27.9749 7.99507C28.9632 7.60028 29.8252 7.65281 30.5366 8.17937C32.5894 9.68 33.1986 14.7612 33.2748 16.5777C33.2748 16.8409 33.5033 17.1043 33.782 17.1304C34.0364 17.1568 34.2389 16.9725 34.2389 16.7093C34.2129 16.3934 33.9343 9.5484 30.9918 7.38961Z" fill="#B2B2C2"/>
<path opacity="0.46" fill-rule="evenodd" clip-rule="evenodd" d="M22.8514 19.579C22.8254 19.579 22.8255 19.579 22.8012 19.579C22.6489 19.5527 22.5208 19.3947 22.4965 19.2368C22.4965 19.1313 22.4204 16.7357 23.0037 14.024C23.7636 10.4173 25.3629 8.0215 27.568 7.12632C28.8108 6.62612 29.9273 6.73153 30.8914 7.41605C33.7318 9.49578 34.0104 16.2355 34.0104 16.5251C34.0104 16.683 33.8841 16.7883 33.7318 16.7621C33.5794 16.7357 33.453 16.6041 33.4271 16.4198C33.4271 16.3408 33.1484 9.73279 30.5867 7.83719C29.8251 7.28445 28.887 7.20539 27.8225 7.62654C22.8514 9.70644 23.0799 19.2368 23.0799 19.342C23.1041 19.4736 23.0037 19.579 22.8514 19.579Z" fill="#B2B2C2"/>
<path opacity="0.62" fill-rule="evenodd" clip-rule="evenodd" d="M24.9062 12.0496C25.1087 11.6549 25.3111 11.2599 25.4894 10.8387C25.4133 10.9703 24.9061 12.3394 23.3587 12.1287C23.3327 12.1287 24.2709 12.4183 24.9062 12.0496Z" fill="#595961"/>
<path opacity="0.62" fill-rule="evenodd" clip-rule="evenodd" d="M24.3469 13.7343C24.4993 13.313 24.6515 12.8655 24.7537 12.4443C24.7035 12.6023 24.449 14.0239 22.8254 14.0239C22.8254 14.0239 23.7636 14.2082 24.3469 13.7343Z" fill="#595961"/>
<path opacity="0.62" fill-rule="evenodd" clip-rule="evenodd" d="M33.249 10.3385C33.0465 9.86447 32.818 9.41697 32.5895 8.94312C32.6657 9.10107 33.4273 10.6017 32.5653 11.681C32.5653 11.681 33.2248 11.1546 33.249 10.3385Z" fill="#595961"/>
<path opacity="0.62" fill-rule="evenodd" clip-rule="evenodd" d="M31.8557 7.9692C31.4489 7.62694 31.0438 7.31103 30.6371 7.02148C30.7894 7.15308 32.1343 8.12715 32.0581 9.6016C32.0321 9.6016 32.2607 8.73277 31.8557 7.9692Z" fill="#595961"/>
<path opacity="0.62" fill-rule="evenodd" clip-rule="evenodd" d="M25.6416 10.6012C25.9462 10.2853 26.1989 9.94307 26.4775 9.57446C26.3771 9.67971 25.5395 10.7592 24.044 10.3642C24.044 10.3642 24.9059 10.8382 25.6416 10.6012Z" fill="#595961"/>
<path opacity="0.62" fill-rule="evenodd" clip-rule="evenodd" d="M26.5797 9.39058C26.9345 9.12738 27.2634 8.86401 27.594 8.57446C27.4676 8.65352 26.4274 9.52217 24.9821 8.89036C24.9821 8.89036 25.8181 9.49582 26.5797 9.39058Z" fill="#595961"/>
<path opacity="0.62" fill-rule="evenodd" clip-rule="evenodd" d="M27.9489 8.52126C28.3799 8.38966 28.7867 8.23171 29.1917 8.07376C29.0394 8.12629 27.7463 8.60015 26.4776 7.59973C26.5036 7.59973 27.1631 8.38966 27.9489 8.52126Z" fill="#595961"/>
<path opacity="0.62" fill-rule="evenodd" clip-rule="evenodd" d="M29.1917 8.04787C29.5465 8.10058 29.9013 8.12694 30.2562 8.15329C30.1298 8.12694 29.0133 8.04788 28.3798 6.99475C28.3798 6.99475 28.6344 7.70561 29.1917 8.04787Z" fill="#595961"/>
<path opacity="0.62" fill-rule="evenodd" clip-rule="evenodd" d="M30.663 8.62668C30.9157 8.9164 31.196 9.20595 31.4989 9.46914C31.3985 9.3639 30.5366 8.49508 30.7391 7.41577C30.7132 7.41577 30.4345 8.02122 30.663 8.62668Z" fill="#595961"/>
<path opacity="0.74" fill-rule="evenodd" clip-rule="evenodd" d="M33.7318 16.3935C33.7318 16.1038 33.4531 9.44308 30.6889 7.41606C30.1558 7.0211 29.5724 6.83679 28.9632 6.83679C28.5062 6.83679 28.025 6.94203 27.5178 7.15269C25.311 8.02151 23.7636 10.3646 23.0037 13.945C22.4204 16.6303 22.4965 19.0261 22.4965 19.1314C22.4965 19.2104 22.5727 19.2893 22.6489 19.2893H22.6731C22.7492 19.2893 22.8012 19.2368 22.8012 19.1577C22.8012 19.0525 22.5467 9.44308 27.6442 7.38971C28.7606 6.94203 29.7247 7.0211 30.5365 7.62655C33.1727 9.5485 33.4531 16.2619 33.4531 16.3408C33.4531 16.4198 33.5292 16.4987 33.6054 16.4987C33.6054 16.4987 33.6054 16.4987 33.6296 16.4987C33.6815 16.5251 33.7318 16.4724 33.7318 16.3935Z" fill="url(#paint0_linear_355_17477)"/>
<path fill-rule="evenodd" clip-rule="evenodd" d="M34.1629 13.1029C33.5796 10.2596 32.6155 8.33769 31.2723 7.33728C30.5367 6.81089 29.7492 6.57387 28.8872 6.62658C29.5726 6.67911 30.2061 6.91613 30.7894 7.33728C32.1343 8.31151 33.0985 10.2596 33.6818 13.1029C34.0868 15.1038 34.1629 16.8412 34.1629 16.9203C34.1629 17.2362 34.0106 17.4732 33.7562 17.5521C33.8081 17.5785 33.8583 17.5785 33.8843 17.5785C34.3153 17.6312 34.6441 17.3415 34.6199 16.9203C34.6441 16.8412 34.5679 15.1301 34.1629 13.1029Z" fill="url(#paint1_linear_355_17477)"/>
<path fill-rule="evenodd" clip-rule="evenodd" d="M27.7724 8.44293C23.0038 10.3647 23.2322 19.6055 23.2322 19.7107C23.2322 20.0266 23.0799 20.2637 22.8254 20.3425C22.8774 20.3689 22.9017 20.3689 22.9536 20.3689C22.9778 20.3689 23.0297 20.3689 23.0539 20.3689C23.4347 20.3689 23.6874 20.0793 23.6874 19.7107C23.6874 19.6055 23.4607 10.3911 28.2276 8.46929C28.5582 8.33769 28.8627 8.25863 29.1414 8.23227C28.7347 8.15338 28.2795 8.23227 27.7724 8.44293Z" fill="url(#paint2_linear_355_17477)"/>
<path fill-rule="evenodd" clip-rule="evenodd" d="M34.9989 10.7331L13.4927 17.6306C13.4927 17.6306 12.5805 17.894 12.3521 18.1835C12.1236 18.4731 12.0734 19.2892 12.0734 19.2892L8.75 45.8793L33.7059 50.7235L35.6342 10.7068C35.3555 10.654 35.0751 10.7068 34.9989 10.7331Z" fill="url(#paint3_linear_355_17477)"/>
<path fill-rule="evenodd" clip-rule="evenodd" d="M42.4314 14.1554C42.4314 14.1554 42.4054 13.9448 42.279 13.8659C42.1769 13.7868 42.0505 13.7868 42.0505 13.7868L38.5247 13.5236L35.9388 10.8646C35.8366 10.7856 35.7345 10.733 35.6082 10.7067L33.6818 50.7234L47.1982 47.6958L42.4314 14.1554Z" fill="url(#paint4_linear_355_17477)"/>
<path fill-rule="evenodd" clip-rule="evenodd" d="M26.1228 32.9526C25.742 32.4261 25.2868 31.9522 24.8299 31.5309C24.3729 31.1098 23.8917 30.7675 23.4088 30.4516C23.08 30.2409 22.7753 30.0303 22.5209 29.8196C22.2682 29.6091 22.0656 29.3985 21.9133 29.2142C21.761 29.0035 21.6346 28.8192 21.5585 28.6087C21.4823 28.398 21.4563 28.1874 21.4563 27.9767C21.4563 27.6872 21.5325 27.3976 21.6346 27.1606C21.735 26.9238 21.9133 26.7131 22.0899 26.5288C22.2941 26.3445 22.5209 26.2129 22.8013 26.1077C23.0799 26.0022 23.4087 25.9497 23.7636 25.9234C24.1444 25.897 24.5252 25.9234 24.88 25.9497C25.2349 25.9759 25.5655 26.055 25.8943 26.1338C26.199 26.2129 26.5036 26.3182 26.7563 26.4236C27.0107 26.5288 27.2634 26.6341 27.4417 26.7395L29.1155 21.5794C28.8628 21.4478 28.5582 21.3161 28.2276 21.2372C27.8728 21.1318 27.492 21.0529 27.061 21.0002C26.63 20.9476 26.173 20.9213 25.6918 20.9213C25.2106 20.9213 24.7035 20.9476 24.1704 21.0265C23.0298 21.1845 22.0137 21.5004 21.1015 21.9742C20.2396 22.4219 19.4779 23.001 18.8444 23.7119C18.2352 24.3964 17.754 25.1861 17.3991 26.0813C17.0685 26.9501 16.8661 27.9242 16.8159 28.9771C16.7899 29.6091 16.8401 30.1882 16.9924 30.7148C17.1187 31.2414 17.323 31.7416 17.6016 32.2154C17.8543 32.6893 18.1849 33.1106 18.5398 33.5054C18.8946 33.9003 19.3256 34.269 19.7566 34.6112C20.1114 34.8744 20.4161 35.1376 20.6705 35.3746C20.9232 35.6116 21.1275 35.8485 21.2781 36.1118C21.4304 36.3487 21.5325 36.5857 21.6086 36.8489C21.6848 37.0859 21.7108 37.3491 21.6848 37.6125C21.6848 37.8757 21.6087 38.1389 21.5066 38.3495C21.4062 38.5602 21.2781 38.7708 21.0756 38.9288C20.899 39.0867 20.6706 39.192 20.4161 39.2447C20.1634 39.2972 19.8588 39.3236 19.5282 39.2711C19.1491 39.2183 18.7682 39.1131 18.4134 38.955C18.0586 38.8234 17.7021 38.6391 17.3732 38.4548C17.0444 38.2706 16.7397 38.06 16.4853 37.8757C16.2066 37.6914 15.9781 37.4807 15.8016 37.3228L14.6591 41.2455C14.8374 41.5087 15.0902 41.7457 15.3688 41.9826C15.6492 42.2196 15.9781 42.4564 16.3589 42.6935C16.7397 42.9041 17.1448 43.1146 17.5758 43.2989C18.0067 43.4832 18.4896 43.6412 18.9708 43.7729H18.9968H19.021H19.047H19.073C20.1115 44.0098 21.1015 44.0625 22.0397 43.9309C23.0038 43.7991 23.8917 43.4569 24.6515 42.9305C25.4373 42.3776 26.0726 41.6403 26.5538 40.6663C27.0367 39.6922 27.3153 38.5075 27.3655 37.1648C27.3915 36.3223 27.2894 35.5853 27.061 34.9008C26.8325 34.111 26.5036 33.5054 26.1228 32.9526Z" fill="url(#paint5_linear_355_17477)"/>
<path opacity="0.226763" fill-rule="evenodd" clip-rule="evenodd" d="M14.8236 41.4602C14.7648 41.3905 14.7093 41.3192 14.6591 41.246L15.8016 37.3232C15.8172 37.3378 15.8344 37.353 15.8518 37.3685C16.0214 37.5201 16.2326 37.7088 16.4853 37.8761C16.7397 38.0604 17.0444 38.2711 17.3733 38.4554C17.7021 38.6395 18.0586 38.8238 18.4134 38.9556C18.7683 39.1135 19.1491 39.2188 19.5282 39.2715C19.8588 39.324 20.1634 39.2978 20.4161 39.2451C20.6706 39.1924 20.899 39.0872 21.0756 38.9292C21.2781 38.7713 21.4062 38.5606 21.5066 38.35C21.6087 38.1393 21.6848 37.8761 21.6848 37.6129C21.7108 37.3495 21.6848 37.0863 21.6087 36.8493C21.5325 36.5861 21.4304 36.3491 21.2781 36.1123C21.1344 35.862 20.944 35.6357 20.7069 35.4104C20.8315 35.5511 20.9371 35.6956 21.0254 35.8489C21.1777 36.0859 21.2781 36.3228 21.3543 36.5861C21.4304 36.823 21.4564 37.0863 21.4304 37.3495C21.4304 37.6129 21.3543 37.8761 21.2539 38.0868C21.1518 38.2974 21.0254 38.5079 20.8229 38.6659C20.6446 38.8238 20.4161 38.9292 20.1634 38.9818C19.909 39.0345 19.6044 39.0608 19.2755 39.0081C18.8947 38.9556 18.5139 38.8502 18.159 38.6922C17.8042 38.5606 17.4494 38.3763 17.1188 38.192C16.7899 38.0077 16.4853 37.7972 16.2326 37.6129C15.9782 37.4456 15.767 37.2569 15.5974 37.1053C15.5801 37.0898 15.5644 37.0746 15.5471 37.06L14.4064 40.9826C14.5189 41.1502 14.6627 41.3071 14.8236 41.4602ZM18.5606 33.5298C18.4654 33.4355 18.3737 33.3399 18.2854 33.2426C17.9306 32.8477 17.6017 32.4265 17.3473 31.9526C17.0686 31.4786 16.8661 30.9784 16.7397 30.452C16.5874 29.9255 16.5354 29.3462 16.5614 28.7144C16.6116 27.6613 16.8159 26.6872 17.1447 25.8184C17.4996 24.9234 17.9825 24.1336 18.5901 23.4491C19.2253 22.7382 19.9851 22.159 20.8471 21.7115C21.761 21.2376 22.7753 20.9217 23.9159 20.7637C24.449 20.6847 24.9562 20.6583 25.4374 20.6583C25.9203 20.6583 26.3773 20.6847 26.8083 20.7374C27.2393 20.7901 27.6201 20.869 27.9749 20.9744C28.3038 21.0533 28.6084 21.1849 28.8629 21.3165L28.823 21.4396C28.6396 21.3599 28.4388 21.2881 28.2276 21.2376C27.8728 21.1324 27.492 21.0533 27.061 21.0006C26.63 20.948 26.173 20.9217 25.6918 20.9217C25.2106 20.9217 24.7035 20.948 24.1704 21.0269C23.0298 21.1849 22.0137 21.5008 21.1016 21.9748C20.2396 22.4223 19.478 23.0014 18.8445 23.7123C18.2352 24.3968 17.754 25.1866 17.3991 26.0817C17.0685 26.9506 16.8661 27.9246 16.8159 28.9776C16.7899 29.6096 16.8401 30.1887 16.9924 30.7152C17.1188 31.2418 17.323 31.742 17.6017 32.2158C17.8544 32.6897 18.185 33.111 18.5398 33.5058C18.5467 33.5137 18.5537 33.5218 18.5606 33.5298ZM22.005 29.3224C22.1435 29.479 22.3167 29.6495 22.5209 29.82C22.7753 30.0307 23.08 30.2414 23.4088 30.452C23.8918 30.7679 24.3729 31.1102 24.8299 31.5313C24.9631 31.654 25.0947 31.7809 25.2262 31.9125C25.0151 31.6855 24.7952 31.4707 24.5754 31.2681C24.1201 30.8468 23.6373 30.5046 23.1561 30.1887C22.8255 29.978 22.5209 29.7675 22.2682 29.5568C22.173 29.4783 22.0864 29.3998 22.005 29.3224Z" fill="black"/>
<path opacity="0.41" fill-rule="evenodd" clip-rule="evenodd" d="M39.3866 43.2732L38.5246 13.5239L38.3723 13.3659L38.7791 42.8519C38.7791 42.8519 35.2031 48.4858 34.67 48.3279C33.8842 48.091 36.2174 11.1544 36.2174 11.1544L35.963 10.8912C35.8626 10.8122 35.7345 10.7596 35.6341 10.7333L33.7319 50.1971L33.7059 50.75L34.3653 49.8812L39.3866 43.2732Z" fill="url(#paint6_linear_355_17477)"/>
<path fill-rule="evenodd" clip-rule="evenodd" d="M29.6728 12.4447C29.3699 13.6819 28.9892 14.8403 28.7105 15.5512C28.5322 15.9725 28.7347 16.3673 29.1155 16.42C29.5223 16.4727 29.9775 16.183 30.1298 15.7618C30.1558 15.6827 30.8394 13.9716 31.2722 11.9444V11.9181L29.6728 12.4447Z" fill="url(#paint7_linear_355_17477)"/>
<path fill-rule="evenodd" clip-rule="evenodd" d="M18.2353 16.1299C17.8805 16.9197 17.5257 17.6042 17.2712 18.078C17.0445 18.473 17.1708 18.8942 17.5516 18.9994C17.9307 19.1312 18.4378 18.8942 18.6663 18.4992C18.6922 18.4467 19.4279 17.1567 20.0874 15.5243L18.2353 16.1299Z" fill="url(#paint8_linear_355_17477)"/>
<path opacity="0.32" fill-rule="evenodd" clip-rule="evenodd" d="M33.7059 50.7234L39.3866 43.2728L47.2501 47.6958L33.7059 50.7234Z" fill="url(#paint9_linear_355_17477)"/>
<path opacity="0.19" fill-rule="evenodd" clip-rule="evenodd" d="M33.7059 50.7234L39.3364 43.2728L47.2501 47.6958L33.7059 50.7234Z" fill="url(#paint10_linear_355_17477)"/>
<path opacity="0.19" fill-rule="evenodd" clip-rule="evenodd" d="M33.7059 50.7234L39.3364 43.2728L47.2501 47.6958L33.7059 50.7234Z" fill="url(#paint11_linear_355_17477)"/>
<path opacity="0.6" fill-rule="evenodd" clip-rule="evenodd" d="M28.1774 29.8728C31.1199 34.0061 33.0982 38.4816 34.0866 42.8255L35.634 10.6806C35.3554 10.628 35.075 10.6806 34.9988 10.7069L13.4926 17.631C13.4926 17.631 13.29 17.6835 13.0356 17.7889C18.4896 19.737 23.942 23.923 28.1774 29.8728Z" fill="url(#paint12_linear_355_17477)"/>
<path fill-rule="evenodd" clip-rule="evenodd" d="M42.303 13.8922C42.4311 13.9976 42.4311 14.1556 42.4311 14.1556L47.1477 47.6694L39.3864 43.2466L38.5245 13.4974L42.0001 13.7606C42.0243 13.787 42.1766 13.787 42.303 13.8922Z" fill="url(#paint13_linear_355_17477)"/>
<path fill-rule="evenodd" clip-rule="evenodd" d="M41.7459 13.9717C41.7459 13.9717 41.8982 13.9717 42.0246 14.1033C42.1509 14.2087 42.1768 14.3667 42.1768 14.3667L46.8191 47.5121L47.1739 47.7227L42.4555 14.1823C42.4555 14.1823 42.4313 14.0244 42.3291 13.9191C42.2028 13.8137 42.0246 13.8137 42.0246 13.8137L38.5507 13.5505L41.7459 13.9717Z" fill="url(#paint14_linear_355_17477)"/>
<path fill-rule="evenodd" clip-rule="evenodd" d="M8.75 45.879L33.7059 50.7231L34.9244 23.2905L11.8534 23.9463L8.75 45.879Z" fill="url(#paint15_linear_355_17477)"/>
<path opacity="0.3" fill-rule="evenodd" clip-rule="evenodd" d="M16.9421 18.0142C16.7154 18.6542 16.9386 19.3264 17.444 19.5163C17.9477 19.7059 18.5397 19.3411 18.7682 18.7014C18.9949 18.0616 18.7699 17.3892 18.2662 17.1995C17.7626 17.0097 17.1688 17.3745 16.9421 18.0142Z" fill="white"/>
<path opacity="0.89" fill-rule="evenodd" clip-rule="evenodd" d="M16.9147 17.7106C16.6879 18.3503 16.9129 19.0228 17.4166 19.2124C17.9203 19.4022 18.514 19.0374 18.7407 18.3977C18.9675 17.7578 18.7442 17.0853 18.2388 16.8957C17.7351 16.7059 17.1431 17.0707 16.9147 17.7106Z" fill="black"/>
<path fill-rule="evenodd" clip-rule="evenodd" d="M38.5506 13.5236L35.963 10.8646C35.8626 10.7856 35.7345 10.733 35.6341 10.7067L33.7059 50.7234L39.4126 43.2464L38.5506 13.5236Z" fill="url(#paint16_linear_355_17477)"/>
<path fill-rule="evenodd" clip-rule="evenodd" d="M34.9989 10.7337L13.4927 17.6312C13.4927 17.6312 12.5805 17.8945 12.352 18.1841C12.3261 18.2104 12.326 18.2368 12.3018 18.2631L33.9846 12.05C34.1629 11.9973 34.5939 11.8393 34.5437 13.1293L33.2247 50.6713L33.6817 50.7504L35.6081 10.7337C35.3554 10.6546 35.0751 10.7073 34.9989 10.7337Z" fill="url(#paint17_linear_355_17477)"/>
<path fill-rule="evenodd" clip-rule="evenodd" d="M34.9989 10.7337L13.4927 17.6312C13.4927 17.6312 12.5805 17.8945 12.352 18.1841C12.3261 18.2104 12.326 18.2368 12.3018 18.2631L17.3231 16.8151L34.5939 11.2602C34.67 11.2339 34.9487 11.1812 35.2274 11.2339L33.3252 50.6713L33.6817 50.7504L35.6081 10.7337C35.3554 10.6546 35.0751 10.7073 34.9989 10.7337Z" fill="url(#paint18_linear_355_17477)"/>
<path opacity="0.32" fill-rule="evenodd" clip-rule="evenodd" d="M40.5291 43.9049L39.3867 43.2467L33.6818 50.7235L33.9846 50.6444C33.9846 50.6444 39.0076 43.9312 39.4629 43.7206C39.7935 43.589 40.5291 43.9049 40.5291 43.9049Z" fill="url(#paint19_linear_355_17477)"/>
<path opacity="0.57" fill-rule="evenodd" clip-rule="evenodd" d="M33.7059 50.7235L39.4126 43.2467C39.3866 43.2731 35.7864 47.3536 33.7059 50.7235Z" fill="url(#paint20_linear_355_17477)"/>
<path opacity="0.46" fill-rule="evenodd" clip-rule="evenodd" d="M47.2499 47.6958L39.4124 43.2728C39.3864 43.2728 40.3004 43.4308 47.2499 47.6958Z" fill="url(#paint21_linear_355_17477)"/>
<path opacity="0.3" fill-rule="evenodd" clip-rule="evenodd" d="M28.5375 15.3892C28.309 16.0291 28.534 16.7015 29.0377 16.8914C29.5431 17.0812 30.1351 16.7164 30.3619 16.0766C30.5903 15.4367 30.3653 14.7643 29.8616 14.5745C29.3579 14.3848 28.7642 14.7495 28.5375 15.3892Z" fill="white"/>
<path opacity="0.89" fill-rule="evenodd" clip-rule="evenodd" d="M28.5097 15.0866C28.283 15.7265 28.5081 16.399 29.0118 16.5888C29.5155 16.7785 30.1091 16.4138 30.3358 15.7739C30.5626 15.1342 30.3393 14.4617 29.8356 14.2719C29.3302 14.0821 28.7382 14.4469 28.5097 15.0866Z" fill="black"/>
<path fill-rule="evenodd" clip-rule="evenodd" d="M17.8302 18.9999C17.8042 18.9999 17.754 18.9999 17.728 18.9999C17.323 18.9474 17.0444 18.5524 17.0946 18.1049C17.1448 17.6836 18.59 7.83736 24.5252 5.59968C26.0207 5.04676 27.2894 5.15201 28.2535 5.96829C29.4201 6.94236 30.0536 8.89048 30.1558 11.7338C30.2319 13.7346 30.0035 15.4721 30.0035 15.5512C29.9533 15.9723 29.5725 16.2884 29.1658 16.2093C28.7607 16.1566 28.4561 15.7618 28.5322 15.3405C28.7607 13.5503 29.0134 8.62729 27.3154 7.20555C26.7823 6.75805 26.0467 6.70534 25.0584 7.07395C19.961 8.99573 18.616 18.2365 18.616 18.3154C18.5139 18.7104 18.211 18.9999 17.8302 18.9999Z" fill="#595961"/>
<path opacity="0.46" fill-rule="evenodd" clip-rule="evenodd" d="M27.9489 6.02068C27.061 5.28363 25.8944 5.17839 24.4993 5.67859C22.0899 6.59995 20.0612 9.02194 18.6661 12.6814C17.6276 15.3931 17.2711 17.8414 17.2711 17.9468C17.2469 18.0784 17.2971 18.21 17.3733 18.3154C17.4494 18.4207 17.5515 18.4997 17.6778 18.4997C17.7021 18.4997 17.728 18.4997 17.754 18.4997C17.9825 18.4997 18.1849 18.3154 18.2109 18.0784C18.2351 17.9732 19.5801 8.57443 24.8299 6.59995C25.8944 6.20499 26.7563 6.2577 27.3656 6.78426C29.1657 8.28489 28.913 13.3659 28.6845 15.1824C28.6586 15.4458 28.8369 15.709 29.0896 15.7353C29.344 15.7617 29.5967 15.5774 29.6227 15.3142C29.6486 15.0244 30.5366 8.17964 27.9489 6.02068Z" fill="#B2B2C2"/>
<path opacity="0.81" fill-rule="evenodd" clip-rule="evenodd" d="M17.7282 18.21C17.7022 18.21 17.7022 18.21 17.678 18.21C17.5257 18.1836 17.4235 18.0257 17.4495 17.8677C17.4754 17.7623 17.8043 15.3667 18.8446 12.655C20.2397 9.04829 22.2181 6.65248 24.5755 5.75731C25.9204 5.2571 27.0109 5.36252 27.8469 6.04703C30.3325 8.12676 29.4705 14.8665 29.4203 15.156C29.3943 15.314 29.268 15.4192 29.0897 15.3931C28.9391 15.3667 28.837 15.2351 28.837 15.0508C28.837 14.9717 29.699 8.36377 27.4679 6.46818C26.8084 5.96797 25.8945 5.91543 24.7798 6.33658C19.4279 8.36377 18.0328 17.8677 18.0328 17.973C18.0069 18.1046 17.8805 18.21 17.7282 18.21Z" fill="#B2B2C2"/>
<path opacity="0.42" fill-rule="evenodd" clip-rule="evenodd" d="M21.0757 10.6804C21.3543 10.2856 21.6087 9.89063 21.8614 9.46948C21.761 9.60108 21.0254 10.9701 19.504 10.7595C19.478 10.7595 20.366 11.049 21.0757 10.6804Z" fill="#595961"/>
<path opacity="0.42" fill-rule="evenodd" clip-rule="evenodd" d="M20.2137 12.365C20.4422 11.9437 20.6706 11.4962 20.8472 11.0751C20.771 11.233 20.2639 12.6546 18.6663 12.6546C18.6663 12.6546 19.5543 12.8389 20.2137 12.365Z" fill="#595961"/>
<path opacity="0.42" fill-rule="evenodd" clip-rule="evenodd" d="M19.5542 14.1033C19.7567 13.6556 19.9091 13.2081 20.0614 12.7606C19.9853 12.9186 19.7066 14.3665 18.0328 14.5508C18.0328 14.5244 18.945 14.6299 19.5542 14.1033Z" fill="#595961"/>
<path opacity="0.62" fill-rule="evenodd" clip-rule="evenodd" d="M29.6988 8.96923C29.5724 8.4952 29.446 8.04771 29.2677 7.57385C29.3179 7.7318 29.8252 9.23243 28.7866 10.3117C28.7866 10.3117 29.5464 9.78534 29.6988 8.96923Z" fill="#595961"/>
<path opacity="0.62" fill-rule="evenodd" clip-rule="evenodd" d="M28.7106 6.59968C28.3558 6.25743 27.9992 5.94153 27.6443 5.65198C27.7724 5.78358 28.9633 6.75764 28.6345 8.23191C28.6085 8.23191 28.9893 7.36309 28.7106 6.59968Z" fill="#595961"/>
<path opacity="0.62" fill-rule="evenodd" clip-rule="evenodd" d="M29.9532 11.3914C29.9273 10.9176 29.8512 10.4174 29.775 9.94336C29.775 10.1277 30.0295 11.681 28.8109 12.5235C28.8109 12.5235 29.6486 12.1549 29.9532 11.3914Z" fill="#595961"/>
<path opacity="0.62" fill-rule="evenodd" clip-rule="evenodd" d="M30.0797 13.8664C30.1057 13.3925 30.1057 12.8923 30.0797 12.4185C30.0797 12.6028 30.1056 14.1561 28.8109 14.8668C28.8109 14.8406 29.6989 14.5772 30.0797 13.8664Z" fill="#595961"/>
<path opacity="0.42" fill-rule="evenodd" clip-rule="evenodd" d="M18.9707 16.0248C19.123 15.5509 19.2252 15.0771 19.3256 14.6294C19.2754 14.7873 19.0469 16.288 17.4995 16.6566C17.5255 16.6566 18.4376 16.6302 18.9707 16.0248Z" fill="#595961"/>
<path opacity="0.42" fill-rule="evenodd" clip-rule="evenodd" d="M22.0398 9.23197C22.3946 8.91607 22.7251 8.57381 23.0298 8.2052C22.9017 8.31044 21.8874 9.38992 20.4681 8.99496C20.4923 8.99496 21.2782 9.46899 22.0398 9.23197Z" fill="#595961"/>
<path opacity="0.42" fill-rule="evenodd" clip-rule="evenodd" d="M23.1801 8.02156C23.5869 7.75836 23.9677 7.49499 24.3468 7.20544C24.1962 7.28451 23.0295 8.15315 21.6846 7.52135C21.6846 7.52135 22.3943 8.1268 23.1801 8.02156Z" fill="#595961"/>
<path opacity="0.62" fill-rule="evenodd" clip-rule="evenodd" d="M24.7277 7.15273C25.1847 7.02096 25.6157 6.86301 26.0467 6.70506C25.8944 6.75777 24.5253 7.23162 23.4089 6.2312C23.4089 6.2312 23.9419 7.02096 24.7277 7.15273Z" fill="#595961"/>
<path opacity="0.62" fill-rule="evenodd" clip-rule="evenodd" d="M26.0208 6.6791C26.3773 6.73181 26.7322 6.75816 27.087 6.78452C26.9607 6.75816 25.8701 6.6791 25.3872 5.62598C25.4132 5.62598 25.5396 6.33684 26.0208 6.6791Z" fill="#595961"/>
<path opacity="0.62" fill-rule="evenodd" clip-rule="evenodd" d="M27.3916 7.25783C27.6201 7.54738 27.8468 7.83693 28.0753 8.1003C27.9992 7.99488 27.2895 7.12623 27.6443 6.04675C27.6703 6.04675 27.2895 6.65238 27.3916 7.25783Z" fill="#595961"/>
<path fill-rule="evenodd" clip-rule="evenodd" d="M29.1413 15.0245C29.1655 14.735 30.0293 8.07431 27.6199 6.04712C27.1629 5.65232 26.6056 5.46802 25.9963 5.46802C25.5394 5.46802 25.0323 5.57326 24.4991 5.78392C22.1659 6.65274 20.2134 8.99584 18.8443 12.5762C17.804 15.2615 17.4751 17.6573 17.4492 17.7626C17.4492 17.8415 17.4995 17.9205 17.5756 17.9205H17.6015C17.6777 17.9205 17.7278 17.8678 17.7278 17.7889C17.7538 17.6835 19.1229 8.07431 24.5752 6.02076C25.7418 5.57326 26.7319 5.65232 27.4416 6.25778C29.7488 8.17955 28.8869 14.8929 28.8627 14.972C28.8627 15.0509 28.9129 15.1299 28.989 15.1299C28.989 15.1299 28.989 15.1299 29.0132 15.1299C29.0894 15.1563 29.1413 15.1036 29.1413 15.0245Z" fill="url(#paint22_linear_355_17477)"/>
<path fill-rule="evenodd" clip-rule="evenodd" d="M30.1558 11.7334C30.0536 8.89013 29.4201 6.96819 28.2535 5.96777C27.62 5.44138 26.8585 5.20436 25.9965 5.25707C26.656 5.30961 27.2635 5.54662 27.7724 5.96777C28.939 6.94201 29.5725 8.89013 29.6729 11.7334C29.749 13.7343 29.5223 15.4717 29.5223 15.5508C29.4704 15.8667 29.2679 16.1037 29.0134 16.1826C29.0653 16.209 29.0895 16.209 29.1415 16.209C29.5465 16.2617 29.9273 15.972 29.9775 15.5508C30.0035 15.4717 30.2319 13.7606 30.1558 11.7334Z" fill="url(#paint23_linear_355_17477)"/>
<path fill-rule="evenodd" clip-rule="evenodd" d="M24.5513 7.07361C19.4538 8.99539 18.1089 18.2362 18.1089 18.3414C18.0588 18.6573 17.8545 18.8943 17.6017 18.9732C17.6519 18.9996 17.6779 18.9996 17.7281 18.9996C17.7541 18.9996 17.8043 18.9996 17.8303 18.9996C18.211 18.9996 18.5139 18.71 18.5659 18.3414C18.5901 18.2362 19.909 9.02175 25.0065 7.0998C25.3631 6.9682 25.666 6.88931 25.9464 6.86296C25.5656 6.81025 25.0826 6.88931 24.5513 7.07361Z" fill="url(#paint24_linear_355_17477)"/>
<defs>
<linearGradient id="paint0_linear_355_17477" x1="23.819" y1="6.89622" x2="23.0236" y2="17.7255" gradientUnits="userSpaceOnUse">
<stop stop-color="white" stop-opacity="0.65"/>
<stop offset="1" stop-color="white" stop-opacity="0.01"/>
</linearGradient>
<linearGradient id="paint1_linear_355_17477" x1="29.6315" y1="13.095" x2="35.2315" y2="17.9999" gradientUnits="userSpaceOnUse">
<stop stop-opacity="0.01"/>
<stop offset="1" stop-opacity="0.4"/>
</linearGradient>
<linearGradient id="paint2_linear_355_17477" x1="27.3863" y1="18.769" x2="33.3138" y2="13.248" gradientUnits="userSpaceOnUse">
<stop stop-opacity="0.01"/>
<stop offset="1" stop-opacity="0.4"/>
</linearGradient>
<linearGradient id="paint3_linear_355_17477" x1="19.8415" y1="2.65725" x2="-3.18118" y2="29.1844" gradientUnits="userSpaceOnUse">
<stop stop-color="#B8D26E"/>
<stop offset="1" stop-color="#7FB525"/>
</linearGradient>
<linearGradient id="paint4_linear_355_17477" x1="51.3349" y1="9.29836" x2="38.6996" y2="9.53299" gradientUnits="userSpaceOnUse">
<stop stop-color="#B4E034"/>
<stop offset="1" stop-color="#60A927"/>
</linearGradient>
<linearGradient id="paint5_linear_355_17477" x1="13.7521" y1="26.9866" x2="3.39284" y2="52.2135" gradientUnits="userSpaceOnUse">
<stop stop-color="white"/>
<stop offset="1" stop-color="#CECEEB"/>
</linearGradient>
<linearGradient id="paint6_linear_355_17477" x1="28.605" y1="89.113" x2="45.0119" y2="89.0798" gradientUnits="userSpaceOnUse">
<stop stop-color="#1D1D1B" stop-opacity="0.5"/>
<stop offset="0.038033" stop-color="#1D1D1B" stop-opacity="0.4837"/>
<stop offset="0.4243" stop-color="#1D1D1B" stop-opacity="0.3185"/>
<stop offset="1" stop-color="#1D1D1B" stop-opacity="0.01"/>
</linearGradient>
<linearGradient id="paint7_linear_355_17477" x1="30.5106" y1="10.1512" x2="27.7887" y2="11.6161" gradientUnits="userSpaceOnUse">
<stop stop-opacity="0.01"/>
<stop offset="1" stop-opacity="0.4"/>
</linearGradient>
<linearGradient id="paint8_linear_355_17477" x1="19.0991" y1="14.4958" x2="17.1857" y2="16.1402" gradientUnits="userSpaceOnUse">
<stop stop-opacity="0.01"/>
<stop offset="1" stop-opacity="0.4"/>
</linearGradient>
<linearGradient id="paint9_linear_355_17477" x1="37.7631" y1="47.7155" x2="37.9568" y2="50.269" gradientUnits="userSpaceOnUse">
<stop stop-opacity="0.01"/>
<stop offset="1" stop-opacity="0.4"/>
</linearGradient>
<linearGradient id="paint10_linear_355_17477" x1="33.2403" y1="43.9772" x2="33.6894" y2="50.6162" gradientUnits="userSpaceOnUse">
<stop stop-color="white" stop-opacity="0.5"/>
<stop offset="0.0896271" stop-color="white" stop-opacity="0.4552"/>
<stop offset="1" stop-color="white" stop-opacity="0.01"/>
</linearGradient>
<linearGradient id="paint11_linear_355_17477" x1="32.3766" y1="45.0098" x2="33.1754" y2="52.1018" gradientUnits="userSpaceOnUse">
<stop stop-opacity="0.01"/>
<stop offset="1" stop-opacity="0.4"/>
</linearGradient>
<linearGradient id="paint12_linear_355_17477" x1="29.2419" y1="4.20678" x2="8.75304" y2="16.0567" gradientUnits="userSpaceOnUse">
<stop stop-color="white" stop-opacity="0.5"/>
<stop offset="1" stop-color="white" stop-opacity="0.01"/>
</linearGradient>
<linearGradient id="paint13_linear_355_17477" x1="33.1951" y1="66.1384" x2="51.2793" y2="66.175" gradientUnits="userSpaceOnUse">
<stop stop-color="#1D1D1B" stop-opacity="0.5"/>
<stop offset="0.0896271" stop-color="#1D1D1B" stop-opacity="0.4552"/>
<stop offset="1" stop-color="#1D1D1B" stop-opacity="0.01"/>
</linearGradient>
<linearGradient id="paint14_linear_355_17477" x1="46.1458" y1="12.5529" x2="43.5768" y2="13.1823" gradientUnits="userSpaceOnUse">
<stop stop-color="white" stop-opacity="0.4"/>
<stop offset="1" stop-color="white" stop-opacity="0.01"/>
</linearGradient>
<linearGradient id="paint15_linear_355_17477" x1="23.0973" y1="51.0161" x2="24.4331" y2="44.5759" gradientUnits="userSpaceOnUse">
<stop stop-color="#1D1D1B" stop-opacity="0.5"/>
<stop offset="0.0896271" stop-color="#1D1D1B" stop-opacity="0.4552"/>
<stop offset="1" stop-color="#1D1D1B" stop-opacity="0.01"/>
</linearGradient>
<linearGradient id="paint16_linear_355_17477" x1="30.8205" y1="88.293" x2="47.2864" y2="88.3073" gradientUnits="userSpaceOnUse">
<stop stop-color="#1D1D1B" stop-opacity="0.5"/>
<stop offset="1" stop-color="#1D1D1B" stop-opacity="0.01"/>
</linearGradient>
<linearGradient id="paint17_linear_355_17477" x1="15.7739" y1="8.41364" x2="7.78802" y2="39.0953" gradientUnits="userSpaceOnUse">
<stop stop-color="white" stop-opacity="0.5"/>
<stop offset="1" stop-color="white" stop-opacity="0.01"/>
</linearGradient>
<linearGradient id="paint18_linear_355_17477" x1="15.7739" y1="8.41364" x2="7.78802" y2="39.0953" gradientUnits="userSpaceOnUse">
<stop stop-color="white" stop-opacity="0.5"/>
<stop offset="1" stop-color="white" stop-opacity="0.01"/>
</linearGradient>
<linearGradient id="paint19_linear_355_17477" x1="35.1547" y1="40.5758" x2="28.8426" y2="49.2636" gradientUnits="userSpaceOnUse">
<stop stop-color="white" stop-opacity="0.5"/>
<stop offset="0.0896271" stop-color="white" stop-opacity="0.4552"/>
<stop offset="1" stop-color="white" stop-opacity="0.01"/>
</linearGradient>
<linearGradient id="paint20_linear_355_17477" x1="37.0586" y1="42.5732" x2="36.4336" y2="43.9741" gradientUnits="userSpaceOnUse">
<stop stop-opacity="0.01"/>
<stop offset="1" stop-opacity="0.4"/>
</linearGradient>
<linearGradient id="paint21_linear_355_17477" x1="43.2567" y1="44.4255" x2="43.2258" y2="44.8021" gradientUnits="userSpaceOnUse">
<stop stop-opacity="0.01"/>
<stop offset="1" stop-opacity="0.4"/>
</linearGradient>
<linearGradient id="paint22_linear_355_17477" x1="20.5267" y1="4.5818" x2="17.7979" y2="15.3618" gradientUnits="userSpaceOnUse">
<stop stop-color="white" stop-opacity="0.65"/>
<stop offset="1" stop-color="white" stop-opacity="0.01"/>
</linearGradient>
<linearGradient id="paint23_linear_355_17477" x1="26.6335" y1="10.8" x2="31.3803" y2="15.626" gradientUnits="userSpaceOnUse">
<stop stop-opacity="0.01"/>
<stop offset="1" stop-opacity="0.4"/>
</linearGradient>
<linearGradient id="paint24_linear_355_17477" x1="23.5993" y1="17.9068" x2="30.1578" y2="11.1713" gradientUnits="userSpaceOnUse">
<stop stop-opacity="0.01"/>
<stop offset="1" stop-opacity="0.4"/>
</linearGradient>
</defs>
</svg>
