<svg width="56" height="56" viewBox="0 0 56 56" fill="none" xmlns="http://www.w3.org/2000/svg">
<path d="M52.5024 28.5441C52.5024 26.5297 52.3356 25.0597 51.9746 23.5353H28.5024V32.6274H42.2801C42.0024 34.8869 40.5024 38.2897 37.169 40.5762L37.1223 40.8806L44.5438 46.515L45.058 46.5653C49.7801 42.2913 52.5024 36.003 52.5024 28.5441" fill="#4285F4"/>
<path d="M28.5009 52.5C35.2508 52.5 40.9174 50.3221 45.0564 46.5655L37.1675 40.5764C35.0564 42.0192 32.223 43.0264 28.5009 43.0264C21.8899 43.0264 16.2788 38.7526 14.2786 32.8453L13.9855 32.8697L6.26852 38.7226L6.1676 38.9975C10.2787 47.0009 18.7231 52.5 28.5009 52.5Z" fill="#34A853"/>
<path d="M14.2802 32.8454C13.7524 31.321 13.447 29.6876 13.447 27.9999C13.447 26.312 13.7524 24.6787 14.2524 23.1543L14.2384 22.8296L6.42475 16.8828L6.1691 17.002C4.47473 20.3231 3.5025 24.0526 3.5025 27.9999C3.5025 31.9471 4.47473 35.6764 6.1691 38.9975L14.2802 32.8454" fill="#FBBC05"/>
<path d="M28.501 12.9733C33.1954 12.9733 36.362 14.9605 38.1677 16.6211L45.2232 9.87C40.89 5.92279 35.251 3.5 28.501 3.5C18.7232 3.5 10.2787 8.99884 6.1676 17.0021L14.2509 23.1544C16.2789 17.2472 21.89 12.9733 28.501 12.9733" fill="#EB4335"/>
</svg>
