<svg width="56" height="56" viewBox="0 0 56 56" fill="none" xmlns="http://www.w3.org/2000/svg">
<path d="M50.7335 18.7713C49.6677 16.2004 47.5077 13.4249 45.8122 12.5482C47.1923 15.2603 47.9906 17.9805 48.2958 20.0102C48.2958 20.0102 48.2958 20.0246 48.3009 20.0512C45.5274 13.1211 40.8235 10.3261 36.9823 4.24212C36.7873 3.93521 36.5933 3.6283 36.4035 3.2999C36.2963 3.11473 36.2095 2.94695 36.134 2.78838C35.9748 2.48076 35.8518 2.15564 35.7675 1.81956C35.7682 1.8036 35.7629 1.78796 35.7527 1.77568C35.7425 1.76339 35.7282 1.75533 35.7124 1.75306C35.6973 1.74898 35.6815 1.74898 35.6664 1.75306C35.6624 1.75492 35.6586 1.75733 35.6552 1.76023C35.6491 1.76023 35.643 1.76739 35.6368 1.76943L35.647 1.75613C29.4845 5.37361 27.3939 12.0653 27.202 15.4137C24.7394 15.5825 22.3847 16.4913 20.4453 18.0215C20.2426 17.8497 20.0306 17.6891 19.8103 17.5406C19.2514 15.5797 19.2278 13.5044 19.742 11.5313C17.2216 12.6822 15.2617 14.4981 13.8366 16.1053H13.8254C12.8526 14.8705 12.921 10.7978 12.9761 9.94762C12.9649 9.89442 12.2513 10.319 12.1594 10.3834C11.301 10.9972 10.4986 11.686 9.76159 12.4418C8.9229 13.294 8.15668 14.2148 7.47091 15.1948C5.89316 17.4357 4.77424 19.9677 4.17883 22.6446C4.1676 22.6978 4.1574 22.753 4.14617 22.8072C4.10023 23.0231 3.93384 24.1065 3.90424 24.3418V24.396C3.68732 25.5155 3.55222 26.6493 3.5 27.7884V27.9143C3.5 41.4921 14.4838 52.5 28.0319 52.5C40.1661 52.5 50.2404 43.6711 52.2136 32.0739C52.2544 31.7599 52.2881 31.4427 52.3249 31.1256C52.8128 26.9086 52.2708 22.4768 50.7335 18.7713ZM22.4573 38.0168C22.5716 38.071 22.6798 38.1314 22.7972 38.1846L22.8135 38.1948C22.6962 38.1375 22.5767 38.0782 22.4583 38.0168H22.4573ZM48.3029 20.0624V20.0389V20.0655V20.0624Z" fill="url(#paint0_linear_355_17487)"/>
<path d="M50.7334 18.7714C49.6677 16.2005 47.5077 13.425 45.8121 12.5482C47.1922 15.2603 47.9905 17.9806 48.2957 20.0103V20.0604C50.6109 26.3501 49.3492 32.7461 47.5322 36.6541C44.7209 42.7003 37.9152 48.8979 27.2611 48.5961C15.7597 48.2687 5.62013 39.7048 3.72655 28.4974C3.38152 26.7286 3.72655 25.8314 3.90008 24.396C3.68878 25.502 3.60813 25.8222 3.50299 27.7884V27.9143C3.50299 41.4921 14.4868 52.5 28.0349 52.5C40.1691 52.5 50.2434 43.6711 52.2166 32.074C52.2574 31.7599 52.2911 31.4427 52.3279 31.1256C52.8127 26.9086 52.2707 22.4768 50.7334 18.7714V18.7714Z" fill="url(#paint1_radial_355_17487)"/>
<path d="M50.7334 18.7714C49.6677 16.2005 47.5077 13.425 45.8121 12.5482C47.1922 15.2603 47.9905 17.9806 48.2957 20.0103V20.0604C50.6109 26.3501 49.3492 32.7461 47.5322 36.6541C44.7209 42.7003 37.9152 48.8979 27.2611 48.5961C15.7597 48.2687 5.62013 39.7048 3.72655 28.4974C3.38152 26.7286 3.72655 25.8314 3.90008 24.396C3.68878 25.502 3.60813 25.8222 3.50299 27.7884V27.9143C3.50299 41.4921 14.4868 52.5 28.0349 52.5C40.1691 52.5 50.2434 43.6711 52.2166 32.074C52.2574 31.7599 52.2911 31.4427 52.3279 31.1256C52.8127 26.9086 52.2707 22.4768 50.7334 18.7714V18.7714Z" fill="url(#paint2_radial_355_17487)"/>
<path d="M38.8116 21.6604C38.8657 21.6982 38.9137 21.7361 38.9648 21.7739C38.3491 20.6783 37.582 19.6754 36.6863 18.7948C29.0609 11.1527 34.6876 2.22363 35.6359 1.7694L35.6461 1.7561C29.4836 5.37357 27.393 12.0653 27.201 15.4137C27.4869 15.3943 27.7717 15.3697 28.0626 15.3697C32.6613 15.3697 36.6669 17.9048 38.8116 21.6604Z" fill="url(#paint3_radial_355_17487)"/>
<path d="M28.0779 23.1869C28.0381 23.8008 25.8821 25.9082 25.1277 25.9082C18.1516 25.9082 17.0195 30.1375 17.0195 30.1375C17.3258 33.6997 19.8022 36.6328 22.7983 38.1847C22.9351 38.2553 23.0729 38.3187 23.2066 38.3822C23.4465 38.4845 23.6874 38.5868 23.9273 38.6778C24.9548 39.041 26.0307 39.2479 27.1193 39.2916C39.3465 39.8666 41.7168 24.6397 32.892 20.2181C35.151 19.8242 37.4968 20.7357 38.8065 21.6575C36.6628 17.9019 32.6562 15.3668 28.0574 15.3668C27.7665 15.3668 27.4817 15.3914 27.1959 15.4108C24.7351 15.5817 22.3827 16.4915 20.4453 18.0216C20.82 18.3398 21.2426 18.7633 22.1317 19.6411C23.7997 21.2902 28.0687 22.9874 28.0779 23.1869V23.1869Z" fill="url(#paint4_radial_355_17487)"/>
<path d="M28.0779 23.1869C28.0381 23.8008 25.8821 25.9082 25.1277 25.9082C18.1516 25.9082 17.0195 30.1375 17.0195 30.1375C17.3258 33.6997 19.8022 36.6328 22.7983 38.1847C22.9351 38.2553 23.0729 38.3187 23.2066 38.3822C23.4465 38.4845 23.6874 38.5868 23.9273 38.6778C24.9548 39.041 26.0307 39.2479 27.1193 39.2916C39.3465 39.8666 41.7168 24.6397 32.892 20.2181C35.151 19.8242 37.4968 20.7357 38.8065 21.6575C36.6628 17.9019 32.6562 15.3668 28.0574 15.3668C27.7665 15.3668 27.4817 15.3914 27.1959 15.4108C24.7351 15.5817 22.3827 16.4915 20.4453 18.0216C20.82 18.3398 21.2426 18.7633 22.1317 19.6411C23.7997 21.2902 28.0687 22.9874 28.0779 23.1869V23.1869Z" fill="url(#paint5_radial_355_17487)"/>
<path d="M19.305 17.2041C19.5041 17.333 19.6674 17.4415 19.8154 17.5407C19.2565 15.5798 19.2329 13.5045 19.747 11.5314C17.2266 12.6823 15.2667 14.4982 13.8417 16.1054C13.957 16.1023 17.5155 16.0379 19.305 17.2041V17.2041Z" fill="url(#paint6_radial_355_17487)"/>
<path d="M3.72716 28.4974C5.62074 39.7049 15.7604 48.2687 27.2699 48.5961C37.924 48.8979 44.7256 42.7003 47.5409 36.6541C49.358 32.7451 50.6197 26.3501 48.3045 20.0604V20.0134C48.3045 20.0195 48.3045 20.0277 48.3096 20.0543C49.1793 25.7496 46.2894 31.2668 41.7714 34.9978C41.7667 35.0083 41.7623 35.0189 41.7581 35.0296C32.9537 42.2144 24.529 39.3642 22.8233 38.201C22.7049 38.1437 22.5854 38.0844 22.467 38.023C17.3334 35.5677 15.2132 30.877 15.6675 26.8575C11.3342 26.8575 9.85605 23.193 9.85605 23.193C9.85605 23.193 13.7473 20.4124 18.8758 22.8308C23.6256 25.0713 28.0865 23.194 28.0865 23.193C28.0773 22.9935 23.8083 21.2912 22.1434 19.6471C21.2543 18.7694 20.8317 18.3458 20.4571 18.0277C20.2543 17.8559 20.0424 17.6953 19.8221 17.5468C19.6761 17.4445 19.5159 17.3422 19.3117 17.2102C17.5223 16.044 13.9637 16.1084 13.8464 16.1115H13.8351C12.8623 14.8767 12.9307 10.804 12.9858 9.95382C12.9746 9.90062 12.2611 10.3252 12.1692 10.3896C11.3108 11.0034 10.5083 11.6922 9.77132 12.448C8.93263 13.3002 8.16641 14.221 7.48064 15.201C5.90289 17.4419 4.78397 19.9739 4.18856 22.6508C4.16917 22.6978 3.29638 26.5168 3.72716 28.4974V28.4974Z" fill="url(#paint7_radial_355_17487)"/>
<path d="M36.6862 18.7949C37.5819 19.6754 38.3489 20.6784 38.9646 21.774C39.0922 21.87 39.2148 21.9724 39.3321 22.0809C44.8934 27.2124 41.9841 34.4771 41.7626 34.9988C46.2807 31.2678 49.1706 25.7505 48.3008 20.0553C45.5273 13.1211 40.8235 10.3261 36.9822 4.24212C36.7872 3.93521 36.5933 3.6283 36.4034 3.2999C36.2962 3.11473 36.2095 2.94695 36.1339 2.78838C35.9747 2.48076 35.8518 2.15564 35.7675 1.81956C35.7681 1.8036 35.7629 1.78796 35.7527 1.77568C35.7425 1.76339 35.7281 1.75533 35.7123 1.75306C35.6973 1.74898 35.6814 1.74898 35.6664 1.75306C35.6623 1.75492 35.6586 1.75733 35.6552 1.76023C35.649 1.76023 35.6429 1.76739 35.6368 1.76943C34.6874 2.22366 29.0608 11.1528 36.6862 18.7949V18.7949Z" fill="url(#paint8_radial_355_17487)"/>
<path d="M39.3301 22.0758C39.2128 21.9674 39.0901 21.8649 38.9626 21.7689C38.9125 21.731 38.8605 21.6932 38.8094 21.6553C37.4998 20.7346 35.154 19.8221 32.8949 20.2159C41.7187 24.6375 39.3494 39.8644 27.1223 39.2895C26.0337 39.2458 24.9577 39.0389 23.9303 38.6757C23.6904 38.5856 23.4495 38.4864 23.2096 38.38C23.0708 38.3166 22.933 38.2531 22.8013 38.1826L22.8176 38.1928C24.5234 39.3591 32.948 42.2092 41.7524 35.0214C41.7524 35.0214 41.7575 35.0081 41.7657 34.9896C41.9841 34.4771 44.8934 27.2125 39.3301 22.0758Z" fill="url(#paint9_radial_355_17487)"/>
<path d="M17.0194 30.1374C17.0194 30.1374 18.1514 25.9081 25.1276 25.9081C25.882 25.9081 28.0379 23.7986 28.0777 23.1869C28.1175 22.5751 23.6168 25.0652 18.867 22.8247C13.7385 20.4062 9.84723 23.1869 9.84723 23.1869C9.84723 23.1869 11.3253 26.8514 15.6586 26.8514C15.2044 30.8709 17.3246 35.5575 22.4582 38.0168C22.5725 38.0711 22.6807 38.1314 22.7981 38.1846C19.8021 36.6357 17.3287 33.6996 17.0194 30.1374Z" fill="url(#paint10_radial_355_17487)"/>
<path d="M50.7335 18.7713C49.6677 16.2004 47.5077 13.4249 45.8122 12.5482C47.1923 15.2603 47.9906 17.9805 48.2958 20.0102C48.2958 20.0102 48.2958 20.0246 48.3009 20.0512C45.5274 13.1211 40.8235 10.3261 36.9823 4.24212C36.7873 3.93521 36.5933 3.6283 36.4035 3.2999C36.2963 3.11473 36.2095 2.94695 36.134 2.78838C35.9748 2.48076 35.8518 2.15564 35.7675 1.81956C35.7682 1.8036 35.7629 1.78796 35.7527 1.77568C35.7425 1.76339 35.7282 1.75533 35.7124 1.75306C35.6973 1.74898 35.6815 1.74898 35.6664 1.75306C35.6624 1.75492 35.6586 1.75733 35.6552 1.76023C35.6491 1.76023 35.643 1.76739 35.6368 1.76943L35.647 1.75613C29.4845 5.37361 27.3939 12.0653 27.202 15.4137C27.4878 15.3943 27.7726 15.3697 28.0635 15.3697C32.6622 15.3697 36.6678 17.9048 38.8125 21.6604C37.5029 20.7397 35.1571 19.8271 32.898 20.221C41.7218 24.6426 39.3526 39.8695 27.1254 39.2946C26.0368 39.2508 24.9608 39.0439 23.9334 38.6807C23.6935 38.5907 23.4526 38.4915 23.2127 38.3851C23.0738 38.3217 22.936 38.2582 22.8044 38.1876L22.8207 38.1979C22.7023 38.1406 22.5828 38.0812 22.4644 38.0199C22.5788 38.0741 22.687 38.1344 22.8044 38.1876C19.8022 36.6357 17.3288 33.6996 17.0195 30.1373C17.0195 30.1373 18.1515 25.9081 25.1277 25.9081C25.8821 25.9081 28.038 23.7986 28.0778 23.1868C28.0686 22.9873 23.7996 21.285 22.1347 19.6409C21.2456 18.7632 20.823 18.3396 20.4483 18.0215C20.2456 17.8497 20.0337 17.6891 19.8134 17.5406C19.2545 15.5797 19.2309 13.5044 19.745 11.5313C17.2247 12.6822 15.2647 14.4981 13.8397 16.1053H13.8285C12.8556 14.8705 12.924 10.7978 12.9792 9.94762C12.9679 9.89442 12.2544 10.319 12.1625 10.3834C11.3041 10.9972 10.5017 11.686 9.76465 12.4418C8.92597 13.294 8.15975 14.2148 7.47398 15.1948C5.89623 17.4357 4.77731 19.9677 4.18189 22.6446C4.17067 22.6978 4.16046 22.753 4.14923 22.8072C4.10329 23.0231 3.89505 24.1218 3.86647 24.3571C3.86647 24.3756 3.86647 24.3398 3.86647 24.3571C3.67533 25.4924 3.55295 26.6383 3.5 27.7884V27.9143C3.5 41.4921 14.4838 52.5 28.0319 52.5C40.1661 52.5 50.2404 43.6711 52.2136 32.0739C52.2544 31.7599 52.2881 31.4427 52.3249 31.1256C52.8128 26.9086 52.2708 22.4768 50.7335 18.7713ZM48.2999 20.0338V20.0604V20.0338Z" fill="url(#paint11_linear_355_17487)"/>
<defs>
<linearGradient id="paint0_linear_355_17487" x1="47.4863" y1="9.61206" x2="6.67436" y2="48.9015" gradientUnits="userSpaceOnUse">
<stop offset="0.05" stop-color="#FFF44F"/>
<stop offset="0.11" stop-color="#FFE847"/>
<stop offset="0.22" stop-color="#FFC830"/>
<stop offset="0.37" stop-color="#FF980E"/>
<stop offset="0.4" stop-color="#FF8B16"/>
<stop offset="0.46" stop-color="#FF672A"/>
<stop offset="0.53" stop-color="#FF3647"/>
<stop offset="0.7" stop-color="#E31587"/>
</linearGradient>
<radialGradient id="paint1_radial_355_17487" cx="0" cy="0" r="1" gradientUnits="userSpaceOnUse" gradientTransform="translate(45.6039 7.38289) scale(51.1431 51.2553)">
<stop offset="0.13" stop-color="#FFBD4F"/>
<stop offset="0.19" stop-color="#FFAC31"/>
<stop offset="0.25" stop-color="#FF9D17"/>
<stop offset="0.28" stop-color="#FF980E"/>
<stop offset="0.4" stop-color="#FF563B"/>
<stop offset="0.47" stop-color="#FF3750"/>
<stop offset="0.71" stop-color="#F5156C"/>
<stop offset="0.78" stop-color="#EB0878"/>
<stop offset="0.86" stop-color="#E50080"/>
</radialGradient>
<radialGradient id="paint2_radial_355_17487" cx="0" cy="0" r="1" gradientUnits="userSpaceOnUse" gradientTransform="translate(26.9161 28.3368) scale(51.1431 51.2553)">
<stop offset="0.3" stop-color="#960E18"/>
<stop offset="0.35" stop-color="#B11927" stop-opacity="0.74"/>
<stop offset="0.43" stop-color="#DB293D" stop-opacity="0.34"/>
<stop offset="0.5" stop-color="#F5334B" stop-opacity="0.09"/>
<stop offset="0.53" stop-color="#FF3750" stop-opacity="0"/>
</radialGradient>
<radialGradient id="paint3_radial_355_17487" cx="0" cy="0" r="1" gradientUnits="userSpaceOnUse" gradientTransform="translate(33.0829 -4.24914) scale(37.051 37.1323)">
<stop offset="0.13" stop-color="#FFF44F"/>
<stop offset="0.25" stop-color="#FFDC3E"/>
<stop offset="0.51" stop-color="#FF9D12"/>
<stop offset="0.53" stop-color="#FF980E"/>
</radialGradient>
<radialGradient id="paint4_radial_355_17487" cx="0" cy="0" r="1" gradientUnits="userSpaceOnUse" gradientTransform="translate(21.2599 41.7255) scale(24.3512 24.4046)">
<stop offset="0.35" stop-color="#3A8EE6"/>
<stop offset="0.47" stop-color="#5C79F0"/>
<stop offset="0.67" stop-color="#9059FF"/>
<stop offset="1" stop-color="#C139E6"/>
</radialGradient>
<radialGradient id="paint5_radial_355_17487" cx="0" cy="0" r="1" gradientUnits="userSpaceOnUse" gradientTransform="translate(27.6507 22.2454) rotate(-13.9265) scale(12.903 15.1874)">
<stop offset="0.21" stop-color="#9059FF" stop-opacity="0"/>
<stop offset="0.28" stop-color="#8C4FF3" stop-opacity="0.06"/>
<stop offset="0.75" stop-color="#7716A8" stop-opacity="0.45"/>
<stop offset="0.97" stop-color="#6E008B" stop-opacity="0.6"/>
</radialGradient>
<radialGradient id="paint6_radial_355_17487" cx="0" cy="0" r="1" gradientUnits="userSpaceOnUse" gradientTransform="translate(26.2699 5.28571) scale(17.519 17.5574)">
<stop stop-color="#FFE226"/>
<stop offset="0.12" stop-color="#FFDB27"/>
<stop offset="0.3" stop-color="#FFC82A"/>
<stop offset="0.5" stop-color="#FFA930"/>
<stop offset="0.73" stop-color="#FF7E37"/>
<stop offset="0.79" stop-color="#FF7139"/>
</radialGradient>
<radialGradient id="paint7_radial_355_17487" cx="0" cy="0" r="1" gradientUnits="userSpaceOnUse" gradientTransform="translate(40.0411 -5.85011) scale(74.744 74.908)">
<stop offset="0.11" stop-color="#FFF44F"/>
<stop offset="0.46" stop-color="#FF980E"/>
<stop offset="0.62" stop-color="#FF5634"/>
<stop offset="0.72" stop-color="#FF3647"/>
<stop offset="0.9" stop-color="#E31587"/>
</radialGradient>
<radialGradient id="paint8_radial_355_17487" cx="0" cy="0" r="1" gradientUnits="userSpaceOnUse" gradientTransform="translate(32.8157 2.33405) rotate(84.2447) scale(54.5993 35.795)">
<stop stop-color="#FFF44F"/>
<stop offset="0.06" stop-color="#FFE847"/>
<stop offset="0.17" stop-color="#FFC830"/>
<stop offset="0.3" stop-color="#FF980E"/>
<stop offset="0.36" stop-color="#FF8B16"/>
<stop offset="0.45" stop-color="#FF672A"/>
<stop offset="0.57" stop-color="#FF3647"/>
<stop offset="0.74" stop-color="#E31587"/>
</radialGradient>
<radialGradient id="paint9_radial_355_17487" cx="0" cy="0" r="1" gradientUnits="userSpaceOnUse" gradientTransform="translate(25.8575 11.7881) scale(46.6628 46.7652)">
<stop offset="0.14" stop-color="#FFF44F"/>
<stop offset="0.48" stop-color="#FF980E"/>
<stop offset="0.59" stop-color="#FF5634"/>
<stop offset="0.66" stop-color="#FF3647"/>
<stop offset="0.9" stop-color="#E31587"/>
</radialGradient>
<radialGradient id="paint10_radial_355_17487" cx="0" cy="0" r="1" gradientUnits="userSpaceOnUse" gradientTransform="translate(38.1755 14.5258) scale(51.0727 51.1848)">
<stop offset="0.09" stop-color="#FFF44F"/>
<stop offset="0.23" stop-color="#FFE141"/>
<stop offset="0.51" stop-color="#FFAF1E"/>
<stop offset="0.63" stop-color="#FF980E"/>
</radialGradient>
<linearGradient id="paint11_linear_355_17487" x1="46.9963" y1="9.40132" x2="12.2682" y2="44.0543" gradientUnits="userSpaceOnUse">
<stop offset="0.17" stop-color="#FFF44F" stop-opacity="0.8"/>
<stop offset="0.27" stop-color="#FFF44F" stop-opacity="0.63"/>
<stop offset="0.49" stop-color="#FFF44F" stop-opacity="0.22"/>
<stop offset="0.6" stop-color="#FFF44F" stop-opacity="0"/>
</linearGradient>
</defs>
</svg>
