<svg width="33" height="32" viewBox="0 0 33 32" fill="none" xmlns="http://www.w3.org/2000/svg">
<path fill-rule="evenodd" clip-rule="evenodd" d="M16.0093 32C24.851 32 32.0187 24.8366 32.0187 16C32.0187 7.16344 24.851 0 16.0093 0C7.16762 0 0 7.16344 0 16C0 24.8366 7.16762 32 16.0093 32ZM29.1076 16.0819C29.1078 16.0546 29.1079 16.0273 29.1079 16C29.1079 11.5333 26.8695 7.58908 23.4526 5.22665V15.9954L23.4526 15.9957L23.4526 15.996V19.3449L29.1076 16.0819ZM29.0651 17.0662C28.7061 21.517 26.1196 25.3391 22.4209 27.4181L16.7728 24.159L19.3152 22.692C19.3165 22.6932 19.3178 22.6944 19.3191 22.6956L19.7102 22.474L20.642 21.9264L29.0651 17.0662ZM21.7487 11.6579L20.5228 10.9506C20.9497 11.7738 21.2631 12.6865 21.4565 13.6123C21.796 15.2369 21.756 16.8524 21.3552 18.0389C20.9632 19.1993 20.2696 19.8629 19.3073 19.8874C18.4701 19.6423 18.0949 19.2096 17.9027 18.7008C17.6889 18.1348 17.6869 17.4444 17.6894 16.6607L17.6895 16.6233C17.6918 15.892 17.6945 15.0649 17.4109 14.3745C17.2613 14.0101 17.0312 13.6779 16.6833 13.4101C16.338 13.1443 15.8966 12.9573 15.3455 12.851C14.7502 12.7363 14.208 12.828 13.7401 13.0956C13.2794 13.3591 12.9178 13.7771 12.6426 14.2742C12.096 15.2621 11.8483 16.6373 11.8681 18.0578C11.8849 19.2692 12.0966 20.5477 12.5117 21.7004L13.7213 22.3983C13.6485 22.2591 13.5792 22.1152 13.5136 21.9671C12.9904 20.7859 12.7182 19.3783 12.6996 18.0463C12.681 16.7075 12.919 15.4923 13.3704 14.6765C13.5944 14.2718 13.8599 13.9847 14.1531 13.817C14.4391 13.6535 14.7774 13.588 15.1879 13.6672C15.6426 13.7548 15.9556 13.899 16.1758 14.0686C16.3936 14.2362 16.5403 14.4436 16.6416 14.6901C16.8548 15.2093 16.8602 15.872 16.8577 16.6581L16.8575 16.7071C16.8551 17.4385 16.8524 18.2736 17.1246 18.9944C17.4204 19.7773 18.0246 20.3958 19.141 20.7042L19.1954 20.7192H19.2518C20.7378 20.7192 21.681 19.6728 22.1431 18.3048C22.6039 16.9408 22.6312 15.1682 22.2706 13.4424C22.145 12.8414 21.9711 12.24 21.7487 11.6579ZM17.1316 22.9923C16.7922 22.8459 16.4868 22.6659 16.2134 22.4574C15.5082 21.9196 15.0393 21.2103 14.74 20.4536C14.1466 18.9532 14.203 17.2262 14.4281 16.0949C14.4729 15.8698 14.6918 15.7236 14.9171 15.7683C15.1423 15.8131 15.2886 16.0319 15.2438 16.257C15.0381 17.2905 14.9976 18.8436 15.5135 20.1481C15.7689 20.7939 16.1562 21.3683 16.7179 21.7966C17.0837 22.0756 17.5338 22.3006 18.0884 22.4402L17.1316 22.9923ZM10.641 20.6209C10.3791 19.2414 10.2512 17.7371 10.4014 16.3173C10.5398 15.0096 10.9115 13.7971 11.6088 12.8189C12.2954 11.8555 13.314 11.0955 14.7987 10.6983C16.5428 10.5655 17.7382 11.4835 18.4551 12.8099C19.1875 14.1648 19.3911 15.9082 19.1139 17.2474C19.0673 17.4722 19.2119 17.6921 19.4368 17.7386C19.6617 17.7851 19.8817 17.6406 19.9283 17.4158C20.2434 15.8932 20.0162 13.9493 19.1868 12.4148C18.3469 10.8608 16.8611 9.69089 14.6934 9.87293L14.6575 9.87595L14.6226 9.8851C12.9383 10.3271 11.7409 11.2009 10.9314 12.3366C10.1271 13.465 9.72277 14.8275 9.57438 16.2299C9.43959 17.5037 9.51393 18.8297 9.70485 20.0808L10.641 20.6209ZM9.02076 12.3844C9.02379 12.3778 9.02683 12.3712 9.02988 12.3645L8.99544 12.3844H9.02076ZM15.1589 7.85557L12.2253 9.51737L9.85569 10.9099C9.84862 10.9201 9.84156 10.9303 9.83453 10.9405L2.95557 14.9098C3.32001 10.4921 5.87925 6.69626 9.54106 4.61398L15.1589 7.85557ZM19.4596 9.37735C19.4585 9.37606 19.4573 9.37477 19.4562 9.37347L19.2759 9.27138L10.4162 4.15917C12.1124 3.35747 14.0085 2.90909 16.0093 2.90909C18.4209 2.90909 20.6803 3.56044 22.621 4.69671V11.2015L19.4596 9.37735ZM2.9112 15.8951C2.91093 15.93 2.91079 15.965 2.91079 16C2.91079 20.4304 5.1129 24.3467 8.48287 26.7154V20.3354L8.48286 20.3354L8.48287 20.3354V12.6802L2.9112 15.8951ZM9.31452 27.2542C11.2737 28.4208 13.5632 29.0909 16.0093 29.0909C17.9859 29.0909 19.8602 28.6534 21.5406 27.8699L9.31452 20.8153V27.2542Z" fill="#101828"/>
</svg>
