<svg width="145" height="26" viewBox="0 0 145 26" fill="none" xmlns="http://www.w3.org/2000/svg">
<path d="M4.70613 13.9665H0.474093C0.455532 15.1909 0.67827 16.2483 1.14231 17.1387C1.60635 18.0292 2.22816 18.7619 3.00774 19.337C3.80589 19.9121 4.71541 20.3294 5.73629 20.5892C6.77574 20.8674 7.84303 21.0065 8.93816 21.0065C10.2932 21.0065 11.4811 20.8489 12.502 20.5335C13.5414 20.2181 14.4045 19.7822 15.0913 19.2257C15.7967 18.6506 16.3257 17.9735 16.6783 17.1944C17.031 16.4152 17.2073 15.5712 17.2073 14.6622C17.2073 13.5492 16.966 12.6402 16.4834 11.9352C16.0194 11.2118 15.4625 10.6367 14.8129 10.21C14.1632 9.78336 13.5043 9.47727 12.8361 9.29176C12.1864 9.08771 11.676 8.94858 11.3048 8.87437C10.0611 8.55901 9.04953 8.2993 8.26994 8.09524C7.50892 7.89118 6.90567 7.68712 6.46019 7.48307C6.03328 7.27901 5.74557 7.0564 5.59708 6.81524C5.44859 6.57408 5.37434 6.25872 5.37434 5.86916C5.37434 5.44249 5.46715 5.09002 5.65277 4.81176C5.83838 4.5335 6.0704 4.30162 6.34882 4.11611C6.64581 3.9306 6.97064 3.80075 7.3233 3.72655C7.67597 3.65234 8.02864 3.61524 8.38131 3.61524C8.9196 3.61524 9.41148 3.66162 9.85696 3.75437C10.321 3.84713 10.7293 4.00481 11.082 4.22742C11.4347 4.45002 11.7131 4.75611 11.9173 5.14568C12.14 5.53524 12.27 6.02683 12.3071 6.62046H16.5391C16.5391 5.47031 16.3164 4.4964 15.8709 3.69872C15.444 2.88249 14.8593 2.21466 14.1168 1.69524C13.3744 1.17582 12.5205 0.804806 11.5553 0.582197C10.6087 0.341038 9.61566 0.220459 8.57621 0.220459C7.68526 0.220459 6.7943 0.341038 5.90335 0.582197C5.01239 0.823356 4.21425 1.19437 3.50891 1.69524C2.80357 2.19611 2.22816 2.82684 1.78268 3.58741C1.35577 4.32944 1.14231 5.2106 1.14231 6.23089C1.14231 7.13988 1.30936 7.91901 1.64347 8.56828C1.99614 9.19901 2.4509 9.72771 3.00774 10.1544C3.56459 10.581 4.19568 10.9335 4.90102 11.2118C5.60636 11.4715 6.33026 11.6941 7.07272 11.8796C7.79662 12.0836 8.51124 12.2692 9.21658 12.4361C9.92192 12.6031 10.553 12.7978 11.1099 13.0205C11.6667 13.2431 12.1122 13.5213 12.4463 13.8552C12.799 14.1892 12.9753 14.6251 12.9753 15.1631C12.9753 15.6639 12.8454 16.0813 12.5855 16.4152C12.3256 16.7306 12.0008 16.981 11.611 17.1665C11.2212 17.3521 10.8036 17.4819 10.3581 17.5561C9.91264 17.6118 9.49501 17.6396 9.10521 17.6396C8.52981 17.6396 7.97296 17.5747 7.43467 17.4448C6.89639 17.2964 6.42307 17.0831 6.01472 16.8048C5.62492 16.508 5.30938 16.1277 5.06808 15.6639C4.82678 15.2002 4.70613 14.6344 4.70613 13.9665Z" fill="#101828"/>
<path d="M28.5228 11.8239H22.0913C22.1098 11.5457 22.1655 11.2303 22.2583 10.8779C22.3697 10.5254 22.546 10.1915 22.7873 9.87611C23.0472 9.56075 23.3813 9.30104 23.7896 9.09698C24.2166 8.87437 24.7456 8.76307 25.3767 8.76307C26.3419 8.76307 27.0565 9.02278 27.5205 9.5422C28.0031 10.0616 28.3372 10.8222 28.5228 11.8239ZM22.0913 14.3283H32.4764C32.5507 13.2152 32.4579 12.1486 32.198 11.1283C31.9382 10.108 31.5112 9.19901 30.9173 8.40133C30.3419 7.60365 29.5994 6.97292 28.6899 6.50916C27.7804 6.02684 26.7131 5.78568 25.488 5.78568C24.3929 5.78568 23.3906 5.98046 22.4811 6.37002C21.5901 6.75959 20.8198 7.29756 20.1701 7.98394C19.5205 8.65176 19.0193 9.44944 18.6667 10.377C18.314 11.3045 18.1377 12.3063 18.1377 13.3822C18.1377 14.4952 18.3047 15.5155 18.6388 16.4431C18.9915 17.3706 19.4834 18.1683 20.1145 18.8361C20.7456 19.5039 21.5159 20.0234 22.4254 20.3944C23.3349 20.7468 24.3558 20.9231 25.488 20.9231C27.1214 20.9231 28.5136 20.5521 29.6644 19.81C30.8152 19.068 31.669 17.8344 32.2259 16.1092H28.7456C28.6156 16.5544 28.263 16.981 27.6876 17.3892C27.1122 17.7787 26.4254 17.9735 25.6272 17.9735C24.5135 17.9735 23.6597 17.686 23.0657 17.1109C22.4718 16.5358 22.1469 15.6083 22.0913 14.3283Z" fill="#101828"/>
<path d="M44.0649 11.2396H47.935C47.8793 10.3121 47.6566 9.51437 47.2668 8.84655C46.877 8.16017 46.3666 7.59437 45.7355 7.14915C45.123 6.68539 44.4176 6.3422 43.6195 6.11959C42.8399 5.89698 42.0232 5.78568 41.1693 5.78568C40 5.78568 38.9605 5.98046 38.051 6.37002C37.1415 6.75959 36.3712 7.30684 35.7401 8.01176C35.109 8.69814 34.6264 9.52365 34.2923 10.4883C33.9767 11.4344 33.819 12.4639 33.819 13.577C33.819 14.6529 33.9953 15.6454 34.348 16.5544C34.7006 17.4448 35.1925 18.2147 35.8236 18.8639C36.4547 19.5132 37.2157 20.0234 38.1067 20.3944C39.0162 20.7468 40.0092 20.9231 41.0858 20.9231C42.9977 20.9231 44.5661 20.4222 45.7912 19.4205C47.0162 18.4187 47.7587 16.9625 48.0186 15.0518H44.2042C44.0742 15.9422 43.7494 16.6564 43.2297 17.1944C42.7285 17.7138 42.0046 17.9735 41.058 17.9735C40.4454 17.9735 39.9257 17.8344 39.4988 17.5561C39.0719 17.2779 38.7285 16.9254 38.4686 16.4987C38.2273 16.0535 38.051 15.5619 37.9396 15.0239C37.8283 14.486 37.7726 13.9573 37.7726 13.4378C37.7726 12.8999 37.8283 12.3619 37.9396 11.8239C38.051 11.2674 38.2366 10.7665 38.4965 10.3213C38.7749 9.85756 39.1276 9.48655 39.5545 9.20828C39.9814 8.91147 40.5104 8.76307 41.1415 8.76307C42.8306 8.76307 43.8051 9.58858 44.0649 11.2396Z" fill="#101828"/>
<path d="M63.1987 20.5613V6.17524H59.2451V13.7161C59.2451 15.1816 59.0038 16.239 58.5212 16.8883C58.0386 17.519 57.259 17.8344 56.1824 17.8344C55.2358 17.8344 54.5769 17.5468 54.2056 16.9718C53.8344 16.3781 53.6488 15.4877 53.6488 14.3005V6.17524H49.6952V15.0239C49.6952 15.9144 49.7694 16.7306 49.9179 17.4726C50.085 18.1961 50.3634 18.8176 50.7532 19.337C51.143 19.8378 51.672 20.2274 52.3402 20.5057C53.027 20.7839 53.8994 20.9231 54.9574 20.9231C55.7927 20.9231 56.6094 20.7376 57.4075 20.3665C58.2057 19.9955 58.8553 19.3926 59.3565 18.5579H59.44V20.5613H63.1987Z" fill="#101828"/>
<path d="M65.6425 6.17524V20.5613H69.5961V14.0778C69.5961 13.4286 69.6611 12.8257 69.791 12.2692C69.921 11.7126 70.1344 11.2303 70.4314 10.8222C70.747 10.3955 71.1553 10.0616 71.6565 9.82046C72.1576 9.5793 72.7702 9.45872 73.4941 9.45872C73.7354 9.45872 73.9859 9.47727 74.2458 9.51437C74.5057 9.53292 74.7284 9.56075 74.914 9.59785V5.92481C74.5985 5.83205 74.3108 5.78568 74.0509 5.78568C73.5497 5.78568 73.0671 5.85988 72.6031 6.00829C72.1391 6.15669 71.7029 6.37002 71.2945 6.64829C70.8862 6.90799 70.5242 7.23263 70.2087 7.6222C69.8931 7.99321 69.6425 8.40133 69.4569 8.84655H69.4012V6.17524H65.6425Z" fill="#101828"/>
<path d="M85.1069 11.8239H78.6753C78.6939 11.5457 78.7496 11.2303 78.8424 10.8779C78.9538 10.5254 79.1301 10.1915 79.3714 9.87611C79.6313 9.56075 79.9654 9.30104 80.3737 9.09698C80.8006 8.87437 81.3297 8.76307 81.9607 8.76307C82.9259 8.76307 83.6406 9.02278 84.1046 9.5422C84.5872 10.0616 84.9213 10.8222 85.1069 11.8239ZM78.6753 14.3283H89.0605C89.1348 13.2152 89.042 12.1486 88.7821 11.1283C88.5222 10.108 88.0953 9.19901 87.5014 8.40133C86.9259 7.60365 86.1835 6.97292 85.274 6.50916C84.3645 6.02684 83.2972 5.78568 82.0721 5.78568C80.977 5.78568 79.9747 5.98046 79.0651 6.37002C78.1742 6.75959 77.4039 7.29756 76.7542 7.98394C76.1046 8.65176 75.6034 9.44944 75.2507 10.377C74.8981 11.3045 74.7217 12.3063 74.7217 13.3822C74.7217 14.4952 74.8888 15.5155 75.2229 16.4431C75.5756 17.3706 76.0674 18.1683 76.6985 18.8361C77.3296 19.5039 78.0999 20.0234 79.0095 20.3944C79.919 20.7468 80.9399 20.9231 82.0721 20.9231C83.7055 20.9231 85.0976 20.5521 86.2485 19.81C87.3993 19.068 88.2531 17.8344 88.81 16.1092H85.3297C85.1997 16.5544 84.8471 16.981 84.2717 17.3892C83.6962 17.7787 83.0095 17.9735 82.2113 17.9735C81.0976 17.9735 80.2438 17.686 79.6498 17.1109C79.0559 16.5358 78.731 15.6083 78.6753 14.3283Z" fill="#101828"/>
<path d="M94.2453 13.9665H90.0133C89.9947 15.1909 90.2174 16.2483 90.6815 17.1387C91.1455 18.0292 91.7673 18.7619 92.5469 19.337C93.3451 19.9121 94.2546 20.3294 95.2755 20.5892C96.3149 20.8674 97.3822 21.0065 98.4773 21.0065C99.8323 21.0065 101.02 20.8489 102.041 20.5335C103.081 20.2181 103.944 19.7822 104.63 19.2257C105.336 18.6506 105.865 17.9735 106.217 17.1944C106.57 16.4152 106.746 15.5712 106.746 14.6622C106.746 13.5492 106.505 12.6402 106.023 11.9352C105.559 11.2118 105.002 10.6367 104.352 10.21C103.702 9.78336 103.043 9.47727 102.375 9.29176C101.726 9.08771 101.215 8.94858 100.844 8.87437C99.6003 8.55901 98.5887 8.2993 97.8091 8.09524C97.0481 7.89118 96.4448 7.68712 95.9994 7.48307C95.5724 7.27901 95.2847 7.0564 95.1362 6.81524C94.9878 6.57408 94.9135 6.25872 94.9135 5.86916C94.9135 5.44249 95.0063 5.09002 95.1919 4.81176C95.3775 4.5335 95.6096 4.30162 95.888 4.11611C96.185 3.9306 96.5098 3.80075 96.8625 3.72655C97.2151 3.65234 97.5678 3.61524 97.9205 3.61524C98.4588 3.61524 98.9506 3.66162 99.3961 3.75437C99.8602 3.84713 100.269 4.00481 100.621 4.22742C100.974 4.45002 101.252 4.75611 101.456 5.14568C101.679 5.53524 101.809 6.02683 101.846 6.62046H106.078C106.078 5.47031 105.856 4.4964 105.41 3.69872C104.983 2.88249 104.398 2.21466 103.656 1.69524C102.914 1.17582 102.06 0.804806 101.095 0.582197C100.148 0.341038 99.1548 0.220459 98.1154 0.220459C97.2244 0.220459 96.3335 0.341038 95.4425 0.582197C94.5516 0.823356 93.7534 1.19437 93.0481 1.69524C92.3427 2.19611 91.7673 2.82684 91.3218 3.58741C90.8949 4.32944 90.6815 5.2106 90.6815 6.23089C90.6815 7.13988 90.8485 7.91901 91.1826 8.56828C91.5353 9.19901 91.9901 9.72771 92.5469 10.1544C93.1038 10.581 93.7348 10.9335 94.4402 11.2118C95.1455 11.4715 95.8694 11.6941 96.6119 11.8796C97.3358 12.0836 98.0504 12.2692 98.7557 12.4361C99.4611 12.6031 100.092 12.7978 100.649 13.0205C101.206 13.2431 101.651 13.5213 101.985 13.8552C102.338 14.1892 102.514 14.6251 102.514 15.1631C102.514 15.6639 102.385 16.0813 102.125 16.4152C101.865 16.7306 101.54 16.981 101.15 17.1665C100.76 17.3521 100.343 17.4819 99.8973 17.5561C99.4518 17.6118 99.0342 17.6396 98.6444 17.6396C98.069 17.6396 97.5121 17.5747 96.9738 17.4448C96.4356 17.2964 95.9622 17.0831 95.5539 16.8048C95.1641 16.508 94.8485 16.1277 94.6072 15.6639C94.3659 15.2002 94.2453 14.6344 94.2453 13.9665Z" fill="#101828"/>
<path d="M112.438 3.94915V0.693501H108.484V3.94915H112.438ZM108.484 6.17524V20.5613H112.438V6.17524H108.484Z" fill="#101828"/>
<path d="M121.704 17.1665C121.092 17.1665 120.581 17.0367 120.173 16.777C119.764 16.5173 119.43 16.1834 119.17 15.7752C118.929 15.3671 118.753 14.9126 118.641 14.4118C118.549 13.8923 118.502 13.3729 118.502 12.8535C118.502 12.3155 118.558 11.8054 118.669 11.3231C118.799 10.8222 118.994 10.3863 119.254 10.0152C119.532 9.62568 119.867 9.31959 120.256 9.09698C120.665 8.87437 121.147 8.76307 121.704 8.76307C122.354 8.76307 122.892 8.88365 123.319 9.12481C123.746 9.36597 124.089 9.6906 124.349 10.0987C124.609 10.5068 124.795 10.9799 124.906 11.5179C125.017 12.0373 125.073 12.5938 125.073 13.1874C125.073 13.7068 124.999 14.2077 124.85 14.69C124.72 15.1538 124.516 15.5712 124.238 15.9422C123.959 16.3132 123.607 16.61 123.18 16.8326C122.753 17.0552 122.261 17.1665 121.704 17.1665ZM128.832 19.6431V6.17524H125.073V8.09524H125.017C124.535 7.26046 123.932 6.66683 123.208 6.31437C122.502 5.96191 121.676 5.78568 120.73 5.78568C119.727 5.78568 118.836 5.98046 118.057 6.37002C117.296 6.75959 116.655 7.28828 116.136 7.95611C115.616 8.60539 115.217 9.36597 114.938 10.2378C114.679 11.0912 114.549 11.9816 114.549 12.9092C114.549 13.8923 114.66 14.8292 114.883 15.7196C115.124 16.5915 115.495 17.3613 115.996 18.0292C116.498 18.6784 117.138 19.1979 117.918 19.5874C118.697 19.9584 119.625 20.1439 120.702 20.1439C121.574 20.1439 122.4 19.9677 123.18 19.6152C123.978 19.2442 124.59 18.6784 125.017 17.9179H125.073V19.81C125.092 20.8303 124.841 21.6744 124.321 22.3422C123.82 23.01 123.013 23.3439 121.899 23.3439C121.194 23.3439 120.572 23.1955 120.034 22.8987C119.495 22.6205 119.133 22.1103 118.948 21.3683H115.022C115.078 22.1845 115.3 22.8802 115.69 23.4552C116.099 24.0489 116.6 24.5312 117.194 24.9022C117.806 25.2732 118.474 25.5422 119.198 25.7092C119.941 25.8947 120.665 25.9874 121.37 25.9874C123.022 25.9874 124.34 25.7648 125.324 25.3196C126.307 24.8744 127.059 24.3271 127.579 23.6779C128.099 23.0471 128.433 22.3607 128.581 21.6187C128.748 20.8767 128.832 20.2181 128.832 19.6431Z" fill="#101828"/>
<path d="M131.458 6.17524V20.5613H135.412V13.0205C135.412 11.555 135.653 10.5068 136.136 9.87611C136.618 9.22684 137.398 8.9022 138.474 8.9022C139.421 8.9022 140.08 9.19901 140.451 9.79263C140.822 10.3677 141.008 11.2489 141.008 12.4361V20.5613H144.962V11.7126C144.962 10.8222 144.878 10.0152 144.711 9.29176C144.563 8.54973 144.293 7.92829 143.904 7.42742C143.514 6.908 142.976 6.50915 142.289 6.23089C141.621 5.93408 140.757 5.78568 139.699 5.78568C138.864 5.78568 138.047 5.98046 137.249 6.37002C136.451 6.74104 135.801 7.34394 135.3 8.17872H135.217V6.17524H131.458Z" fill="#101828"/>
</svg>
