<svg width="25" height="24" viewBox="0 0 25 24" fill="none" xmlns="http://www.w3.org/2000/svg">
<path fill-rule="evenodd" clip-rule="evenodd" d="M9.236 18.657H6.755C6.201 18.657 5.752 18.208 5.752 17.654V15.172C5.752 14.906 5.646 14.651 5.458 14.463L3.703 12.708C3.311 12.316 3.311 11.681 3.703 11.29L5.476 9.517C5.653 9.34 5.752 9.101 5.752 8.851V6.346C5.752 5.792 6.201 5.343 6.755 5.343H9.237C9.503 5.343 9.758 5.237 9.946 5.049L11.701 3.294C12.093 2.902 12.728 2.902 13.119 3.294L14.874 5.049C15.062 5.237 15.317 5.343 15.583 5.343H18.065C18.619 5.343 19.068 5.792 19.068 6.346V8.828C19.068 9.094 19.174 9.349 19.362 9.537L21.117 11.292C21.509 11.684 21.509 12.319 21.117 12.71L19.362 14.465C19.174 14.653 19.068 14.908 19.068 15.174V17.656C19.068 18.21 18.619 18.659 18.065 18.659H15.583C15.317 18.659 15.062 18.765 14.874 18.953L13.119 20.708C12.727 21.1 12.092 21.1 11.701 20.708L9.946 18.953C9.757 18.762 9.502 18.657 9.236 18.657Z" stroke="#101828" stroke-width="1.5" stroke-linecap="round" stroke-linejoin="round"/>
<path d="M15.409 10.5L11.659 14.25L9.409 12" stroke="#101828" stroke-width="1.5" stroke-linecap="round" stroke-linejoin="round"/>
</svg>
