<svg width="24" height="24" viewBox="0 0 24 24" fill="none" xmlns="http://www.w3.org/2000/svg">
<path d="M20.2 9.34998C20.2 8.79769 19.7523 8.34998 19.2 8.34998C18.6477 8.34998 18.2 8.79769 18.2 9.34998H20.2ZM3.80754 15.9602C3.48179 15.5142 2.85617 15.4167 2.41018 15.7424C1.96419 16.0682 1.86672 16.6938 2.19246 17.1398L3.80754 15.9602ZM2.83009 15.5645C2.28584 15.6584 1.9207 16.1756 2.01454 16.7199C2.10838 17.2641 2.62565 17.6293 3.16991 17.5354L2.83009 15.5645ZM5.7 15.65L6.01772 16.5982C6.34515 16.4884 6.59281 16.2176 6.6728 15.8816C6.75279 15.5457 6.6538 15.1923 6.41096 14.9467L5.7 15.65ZM4.8 4.84998L5.68077 4.37644C5.51729 4.07236 5.20851 3.87411 4.86398 3.85202C4.51944 3.82994 4.18788 3.98713 3.98691 4.26784L4.8 4.84998ZM10.2 9.34998L9.96384 10.3217C10.2563 10.3928 10.5652 10.3283 10.8049 10.1463C11.0446 9.9642 11.1895 9.68386 11.1995 9.38303L10.2 9.34998ZM18.3 6.64998L17.4651 7.20034C17.6501 7.48104 17.9638 7.64998 18.3 7.64998V6.64998ZM21 6.64998L21.8321 7.20468C22.0366 6.89782 22.0557 6.50327 21.8817 6.17812C21.7077 5.85296 21.3688 5.64998 21 5.64998V6.64998ZM18.368 8.79528C18.0616 9.2548 18.1858 9.87567 18.6453 10.182C19.1048 10.4884 19.7257 10.3642 20.0321 9.90468L18.368 8.79528ZM18.2 9.34998C18.2 12.3159 17.3535 14.7613 15.8627 16.4509C14.3856 18.1249 12.1957 19.15 9.3 19.15V21.15C12.7043 21.15 15.4644 19.9251 17.3623 17.7741C19.2465 15.6387 20.2 12.684 20.2 9.34998H18.2ZM9.3 19.15C7.69277 19.15 6.63679 18.7365 5.849 18.179C5.03066 17.6 4.44079 16.8272 3.80754 15.9602L2.19246 17.1398C2.81621 17.9938 3.57634 19.021 4.69375 19.8117C5.84171 20.624 7.30723 21.15 9.3 21.15V19.15ZM3.16991 17.5354C3.20155 17.53 3.22602 17.5241 3.23442 17.5221C3.24589 17.5194 3.25514 17.5169 3.26065 17.5154C3.27167 17.5125 3.28055 17.5099 3.28501 17.5086C3.2945 17.5058 3.30288 17.5032 3.30783 17.5017C3.31862 17.4983 3.33074 17.4944 3.34232 17.4907C3.36624 17.483 3.39858 17.4724 3.43697 17.4597C3.51426 17.4343 3.62213 17.3986 3.7496 17.3562C4.00485 17.2713 4.34204 17.1588 4.67784 17.0465C5.01376 16.9343 5.34872 16.8222 5.59967 16.7382C5.72516 16.6962 5.82965 16.6612 5.90278 16.6367C5.93935 16.6244 5.96808 16.6148 5.98766 16.6082C5.99746 16.6049 6.00497 16.6024 6.01003 16.6007C6.01256 16.5999 6.01448 16.5992 6.01577 16.5988C6.01641 16.5986 6.0169 16.5984 6.01723 16.5983C6.01739 16.5983 6.01751 16.5982 6.01759 16.5982C6.01763 16.5982 6.01767 16.5982 6.01769 16.5982C6.01771 16.5982 6.01772 16.5982 5.7 15.65C5.38228 14.7018 5.38227 14.7018 5.38225 14.7018C5.38223 14.7018 5.3822 14.7018 5.38216 14.7018C5.38208 14.7019 5.38196 14.7019 5.3818 14.702C5.38148 14.7021 5.381 14.7022 5.38036 14.7024C5.37908 14.7029 5.37717 14.7035 5.37464 14.7044C5.3696 14.706 5.3621 14.7086 5.35233 14.7118C5.33278 14.7184 5.30409 14.728 5.26756 14.7402C5.19451 14.7647 5.09011 14.7997 4.96474 14.8416C4.71397 14.9256 4.37937 15.0376 4.04391 15.1497C3.70833 15.2618 3.37234 15.374 3.11862 15.4583C2.99161 15.5005 2.88605 15.5355 2.81171 15.56C2.77429 15.5723 2.74627 15.5815 2.72788 15.5874C2.72341 15.5889 2.71985 15.59 2.71711 15.5909C2.71576 15.5913 2.71471 15.5916 2.71393 15.5919C2.71355 15.592 2.71326 15.5921 2.71306 15.5922C2.71285 15.5922 2.71276 15.5922 2.71276 15.5922C2.71277 15.5922 2.71291 15.5922 2.71319 15.5921C2.71345 15.592 2.71391 15.5919 2.71453 15.5917C2.71557 15.5914 2.71807 15.5906 2.72154 15.5896C2.72427 15.5888 2.73174 15.5866 2.74167 15.584C2.74663 15.5826 2.75542 15.5803 2.7665 15.5776C2.77452 15.5757 2.79868 15.5699 2.83009 15.5645L3.16991 17.5354ZM6.41096 14.9467C3.75454 12.2612 3.55689 8.3041 5.61309 5.43211L3.98691 4.26784C1.37511 7.91585 1.63346 12.9608 4.98904 16.3532L6.41096 14.9467ZM3.91923 5.32351C5.12366 7.56374 7.39425 9.69719 9.96384 10.3217L10.4362 8.37826C8.55375 7.92077 6.69034 6.25421 5.68077 4.37644L3.91923 5.32351ZM11.1995 9.38303C11.2352 8.30171 11.6155 7.42454 12.2028 6.82439C12.7848 6.2297 13.6246 5.84998 14.7 5.84998V3.84998C13.1244 3.84998 11.7572 4.42025 10.7734 5.42556C9.79496 6.42541 9.25078 7.79824 9.20055 9.31692L11.1995 9.38303ZM14.7 5.84998C15.4734 5.84998 16.0214 5.99652 16.4312 6.2152C16.8388 6.43274 17.1712 6.75445 17.4651 7.20034L19.1349 6.09961C18.6958 5.4335 18.1307 4.85522 17.3728 4.45075C16.6171 4.04743 15.7316 3.84998 14.7 3.84998V5.84998ZM18.3 7.64998H21V5.64998H18.3V7.64998ZM20.1679 6.09528L18.368 8.79528L20.0321 9.90468L21.8321 7.20468L20.1679 6.09528Z" fill="#101828"/>
</svg>
